
<svg width="124" height="140" viewBox="0 0 124 140" fill="none" xmlns="http://www.w3.org/2000/svg">
<g clip-path="url(#clip0_463_4272)">
<path d="M53.4746 57.585C53.8503 58.1821 53.4746 58.3557 53.0713 58.5362C51.9233 59.0605 50.7823 59.5951 49.6241 60.1228L16.8345 75.1798L16.2278 75.4541C15.848 75.6591 15.4167 75.747 14.9876 75.7069C14.5585 75.6667 14.1507 75.5003 13.8148 75.2284C13.4507 74.9332 13.1725 74.5445 13.0093 74.1034C12.8461 73.6623 12.804 73.185 12.8875 72.7218C12.9978 71.833 13.577 71.288 14.4422 70.9859C16.5863 70.2603 18.7201 69.5104 20.8643 68.771L52.337 57.9738C52.7162 57.8419 53.0988 57.7238 53.4746 57.5989" fill="#800000"/>
<path d="M52.9888 54.8838C51.6858 55.0053 50.4724 55.1303 49.2555 55.231C45.374 55.5619 41.4902 55.8871 37.6041 56.2065C33.5743 56.5537 29.5411 56.9009 25.5114 57.248C21.5908 57.579 17.6702 57.9054 13.7496 58.2271C13.0602 58.2861 12.3466 58.3798 11.6434 58.4215C9.99219 58.5291 9.07869 57.7653 9.02698 56.2586C8.96493 54.488 9.71641 53.627 11.4124 53.6235C13.4187 53.6235 15.4215 53.6791 17.4277 53.7103C19.3547 53.7381 21.2851 53.7589 23.2156 53.7902C26.2249 53.8353 29.2274 53.8666 32.2334 53.9464C32.8255 53.9695 33.409 54.0976 33.957 54.3248C34.7567 54.6477 35.4772 54.8491 36.2493 54.2276C36.5346 54.0633 36.863 53.9906 37.1904 54.0193C42.0532 54.0749 46.916 54.1362 51.7789 54.2033C52.0305 54.1696 52.2862 54.2191 52.5075 54.3443C52.7288 54.4695 52.9038 54.6637 53.0061 54.8977" fill="#800000"/>
<path d="M53.506 59.4182C53.7886 60.1126 53.4163 60.3903 52.9958 60.6819C50.762 62.2234 48.5386 63.7787 46.3083 65.3271L21.0198 82.8769C19.4789 83.9462 18.362 83.7587 17.3416 82.2519C17.0142 81.8139 16.8715 81.2635 16.9444 80.7202C17.0174 80.1768 17.3 79.6843 17.7312 79.3496C17.9687 79.1704 18.2213 79.0124 18.4861 78.8774L52.5614 59.9112C52.851 59.7515 53.1509 59.6057 53.506 59.4182Z" fill="#800000"/>
<path d="M53.3162 56.3699C52.9887 56.4776 52.6613 56.5991 52.3234 56.6893L20.4129 65.1743C17.9999 65.8131 15.6179 66.4693 13.2152 67.0942C11.4916 67.542 10.261 66.6255 10.1472 64.8653C10.0758 64.3221 10.215 63.7721 10.5361 63.3298C10.8572 62.8875 11.3352 62.5869 11.8708 62.4906C13.0635 62.2198 14.2838 62.0567 15.4869 61.8623C21.4988 60.904 27.5072 59.9551 33.5122 59.0154C38.9312 58.1567 44.3501 57.305 49.7691 56.4602C50.5033 56.3422 51.2307 56.1998 51.9649 56.0957C52.3855 56.0332 52.8129 56.0228 53.2404 55.988C53.2645 56.12 53.2921 56.2484 53.3162 56.3803" fill="#800000"/>
<path d="M53.9511 61.4143C53.9511 61.9004 54.027 62.1642 53.9305 62.3308C53.7624 62.5771 53.5604 62.798 53.3306 62.987C45.3975 70.9489 37.4621 78.9073 29.5244 86.8623C28.5202 87.8621 27.5124 88.8539 26.5013 89.8376C26.1735 90.1975 25.7389 90.4411 25.2623 90.5318C24.7858 90.6225 24.2929 90.5556 23.8573 90.341C23.3806 90.1235 22.9841 89.7601 22.7242 89.3027C22.4642 88.8452 22.3541 88.3168 22.4095 87.7927C22.4819 87.0567 22.9369 86.5845 23.4677 86.154C25.5981 84.4158 27.7331 82.68 29.8726 80.9464L52.817 62.2927C53.0997 62.0601 53.3996 61.8413 53.9511 61.4143Z" fill="#800000"/>
<path d="M56.4463 64.8861C57.1909 65.3375 56.9013 65.7957 56.7014 66.2262C55.8534 68.0489 54.9985 69.8716 54.1505 71.6943C49.8277 80.9523 45.5061 90.2022 41.1856 99.444L41.0443 99.746C40.2997 101.312 39.1794 101.652 37.5695 100.788C36.4147 100.18 36.0873 98.8052 36.8801 97.4998C39.7757 92.6394 42.6852 87.7789 45.6084 82.9184L55.7706 65.9589C55.9775 65.6117 56.1981 65.2646 56.4601 64.8757" fill="#800000"/>
<path d="M55.0231 63.2161C55.6229 63.5945 55.3678 63.9104 55.1369 64.2194L52.0068 68.7084L33.8678 94.7465C33.6748 95.0173 33.4921 95.302 33.2852 95.5659C32.3683 96.7428 30.9791 96.8504 29.7622 95.854C28.7108 95 28.5936 93.7154 29.5519 92.601C32.775 88.8411 36.0257 85.1055 39.2661 81.3664C44.2346 75.6241 49.2054 69.883 54.1786 64.143C54.4406 63.8375 54.7232 63.5459 55.0231 63.2195" fill="#800000"/>
<path d="M58.1634 67.292C58.4236 68.1709 58.4236 69.1072 58.1634 69.9861C56.1641 77.4365 54.1739 84.888 52.1929 92.3407C51.3242 95.581 50.4567 98.8213 49.5903 102.062C49.5317 102.273 49.4697 102.492 49.4042 102.704C48.9216 104.36 47.8667 104.926 46.2707 104.395C44.8401 103.922 44.3023 102.721 44.8918 101.169C45.9087 98.4475 46.9601 95.7396 47.9943 93.0246C51.2116 84.6924 54.4233 76.3486 57.6291 67.9933C57.7222 67.7572 57.8222 67.5246 57.9187 67.2989H58.1634" fill="#800000"/>
<path d="M81.9484 41.0351L80.4834 39.7645C80.7523 39.5319 80.9522 39.3374 81.1728 39.1743C88.5268 34.0176 95.89 28.862 103.262 23.7076C104.4 22.9091 105.655 23.1625 106.441 24.329C107.265 25.5511 107.085 26.9051 105.982 27.6828C105.828 27.7852 105.668 27.879 105.503 27.964L82.5345 40.7331C82.3759 40.8234 82.2104 40.8997 81.9415 41.0351" fill="#800000"/>
<path d="M79.0531 38.0598C78.8911 37.5669 78.7463 37.1641 78.6222 36.7545C78.5428 36.5068 78.5413 36.2406 78.6178 35.992C78.6943 35.7435 78.8451 35.5247 79.0497 35.3658C81.0387 33.4146 82.9898 31.4218 84.9581 29.4638L96.8681 17.5522C97.0964 17.3086 97.3369 17.0768 97.5886 16.8578C97.8189 16.6545 98.0876 16.5001 98.3786 16.4039C98.6695 16.3077 98.9768 16.2716 99.282 16.2979C99.5871 16.3241 99.8839 16.4122 100.154 16.5567C100.425 16.7013 100.664 16.8993 100.856 17.139C101.839 18.2743 101.798 19.5345 100.67 20.4719C98.2573 22.4647 95.8443 24.4228 93.4313 26.3982L80.1355 37.2544C79.8184 37.5113 79.4944 37.7543 79.0669 38.0841" fill="#800000"/>
<path d="M83.4346 62.9175C83.8586 63.0945 84.1896 63.223 84.517 63.3758C92.1836 66.9702 99.8466 70.5669 107.506 74.166C107.706 74.2597 107.913 74.3465 108.11 74.4472C109.616 75.211 109.985 76.558 109.089 77.978C108.334 79.1722 107.182 79.4465 105.917 78.6966C104.156 77.6551 102.418 76.5788 100.671 75.52L84.5584 65.7539C83.0727 64.8547 83.0692 64.8582 83.4346 62.9175Z" fill="#800000"/>
<path d="M84.293 60.7512C84.352 60.5715 84.421 60.3953 84.4998 60.2235C85.1892 59.0118 85.1892 59.0049 86.4854 59.366L110.853 66.0526C112.577 66.5282 113.215 67.7502 112.608 69.3611C112.136 70.6075 110.978 71.097 109.585 70.6075C107.982 70.0243 106.396 69.3785 104.807 68.7605L85.3995 61.2233C85.0548 61.0879 84.7101 60.9352 84.293 60.7512Z" fill="#800000"/>
<path d="M77.6874 33.5536L76.2568 31.9739C76.4843 31.6267 76.6739 31.3178 76.8842 31.0192L90.3903 11.6989C90.4971 11.5496 90.5936 11.3899 90.7074 11.2441C91.5933 10.1296 92.8791 9.95604 93.934 10.8032C95.168 11.7926 95.3852 13.0459 94.4338 14.2159C93.3996 15.4831 92.3069 16.7017 91.2383 17.9411L78.4665 32.7134C78.2459 32.9668 78.0183 33.2064 77.7047 33.5536" fill="#800000"/>
<path d="M84.0137 42.4898C84.5825 42.212 84.9996 41.9898 85.4339 41.7954L107.41 31.5017C107.548 31.4392 107.679 31.3732 107.816 31.3211C109.24 30.7587 110.35 31.3211 110.953 32.8938C111.067 33.1719 111.121 33.4707 111.113 33.771C111.104 34.0714 111.034 34.3667 110.906 34.638C110.777 34.9094 110.594 35.1507 110.368 35.3466C110.142 35.5424 109.877 35.6885 109.592 35.7754C107.465 36.5496 105.321 37.2648 103.18 38.0043L87.1885 43.5105C86.9127 43.6077 86.6266 43.6945 86.3509 43.809C86.1685 43.9013 85.9602 43.9279 85.7607 43.8843C85.5613 43.8407 85.3827 43.7296 85.2547 43.5695C84.9099 43.2223 84.5307 42.9376 84.0137 42.4932" fill="#800000"/>
<path d="M86.9434 57.0744C87.4329 56.4808 87.8258 55.9426 88.2912 55.4774C88.5102 55.2927 88.7924 55.2018 89.0772 55.224C92.3658 55.4983 95.6475 55.8003 98.9326 56.0954L107.568 56.8974C109.264 57.0536 110.963 57.189 112.656 57.3591C114.035 57.4945 114.769 58.5534 114.621 60.081C114.486 61.4384 113.566 62.2474 112.19 62.0668C110.815 61.8863 109.495 61.5877 108.147 61.3239C101.354 59.9977 94.557 58.6657 87.7569 57.3279C87.4811 57.259 87.2095 57.1744 86.9434 57.0744Z" fill="#800000"/>
<path d="M58.0842 79.8146C59.3045 81.0991 60.0767 82.2448 59.9078 83.9807C59.2908 90.327 58.784 96.6803 58.2325 103.034C58.1968 103.555 58.1346 104.074 58.0463 104.589C57.7947 105.905 56.5985 106.62 55.1541 106.356C54.867 106.319 54.5905 106.222 54.3416 106.074C54.0927 105.925 53.8765 105.726 53.7064 105.49C53.5364 105.254 53.4159 104.986 53.3525 104.701C53.289 104.417 53.2839 104.122 53.3375 103.836C53.7753 101.305 54.2889 98.7808 54.7853 96.2568C55.8057 91.0654 56.8306 85.8739 57.8602 80.6825C57.905 80.4707 57.9705 80.2624 58.0842 79.8076" fill="#800000"/>
<path d="M61.2761 25.8393L59.001 25.5442C58.9252 24.9331 58.839 24.395 58.7907 23.8465C58.3495 18.6111 57.914 13.3745 57.4842 8.13677C57.3291 6.27938 57.1602 4.42199 57.0154 2.58196C56.9086 1.19326 57.7049 0.294077 59.0561 0.189924C60.6694 0.0649407 61.7208 0.818313 61.8139 2.25215C61.8725 3.33186 61.8139 4.41505 61.7966 5.4913C61.7277 8.96305 61.6542 12.4348 61.576 15.9066C61.514 18.9964 61.4508 22.0886 61.3864 25.1831C61.3651 25.4161 61.3317 25.6479 61.2865 25.8775" fill="#800000"/>
<path d="M74.9027 29.5957C74.5455 28.7464 74.4564 27.8071 74.6476 26.9051C74.7441 26.3392 74.82 25.808 74.3408 25.3532C75.961 21.8814 77.5605 18.4097 79.1669 14.9831C80.3872 12.348 81.6006 9.70947 82.845 7.08482C83.5586 5.58502 84.8547 5.19966 86.2474 6.0051C87.5573 6.76542 87.8675 7.89721 87.0919 9.21301C85.7889 11.4245 84.4652 13.6291 83.1518 15.8336C80.6239 20.0877 78.0868 24.3429 75.5404 28.5993C75.3715 28.877 75.1957 29.1513 74.9027 29.5957Z" fill="#800000"/>
<path d="M66.4677 24.3533L64.0547 23.5687C64.0857 23.0063 64.1029 22.3849 64.1581 21.7669C64.7303 15.3464 65.3049 8.92717 65.8817 2.50905C66.0058 1.12035 66.9848 0.311428 68.3843 0.446826C69.9218 0.596112 70.7698 1.48835 70.5595 2.94996C70.2975 4.7518 69.9218 6.53976 69.5771 8.33465C68.6417 13.2298 67.7006 18.1285 66.7538 23.0306C66.6745 23.4298 66.5849 23.8256 66.4712 24.3533" fill="#800000"/>
<path d="M90.6152 52.9433C91.2599 51.9434 91.7149 51.1831 92.2389 50.4784C92.4493 50.2846 92.7226 50.1748 93.0076 50.1694C95.331 49.9402 97.6578 49.7319 99.9847 49.5306C104.083 49.1834 108.185 48.8362 112.288 48.4543C113.829 48.312 114.866 49.107 114.963 50.5756C115.076 52.2177 114.146 53.3044 112.577 53.2731C107.834 53.1828 103.084 53.037 98.3404 52.9537C95.8584 52.9051 93.373 52.9537 90.6152 52.9537" fill="#800000"/>
<path d="M93.7596 47.2111C93.8044 46.6001 93.8423 46.1314 93.8975 45.4753C93.3046 45.6315 92.8323 45.7599 92.3566 45.878C91.2811 46.1349 90.2124 46.4369 89.1231 46.6175C88.7921 46.679 88.4514 46.6604 88.1289 46.5632C87.8065 46.466 87.5116 46.293 87.2686 46.0585C87.6305 45.9266 87.9132 45.8051 88.2096 45.7113L110.434 39.7573C111.123 39.5733 111.812 39.4483 112.502 39.7851C113.367 40.219 113.881 41.3196 113.76 42.4548C113.722 42.926 113.523 43.3692 113.196 43.7091C112.87 44.049 112.437 44.2646 111.971 44.3192C109.82 44.7045 107.659 45.0448 105.501 45.3954C101.842 45.9856 98.1835 46.5712 94.5249 47.1521C94.3111 47.1868 94.0974 47.1868 93.7665 47.2111" fill="#800000"/>
<path d="M71.6761 24.7559L69.1045 24.6344C69.1769 24.2352 69.2079 23.9192 69.2906 23.6103C71.0418 17.1389 72.8378 10.671 74.5338 4.16842C74.9233 2.66862 76.3436 1.6757 78.0465 2.6096C79.1771 3.22063 79.5632 4.17536 79.0565 5.53976C78.1844 7.8832 77.2743 10.2093 76.3849 12.5388C74.9578 16.2652 73.5318 19.9892 72.107 23.7109C71.976 24.0581 71.8243 24.3845 71.6761 24.7525" fill="#800000"/>
<path d="M56.2646 24.791C55.3235 24.3779 54.5686 24.0967 53.8515 23.7148C53.6033 23.567 53.4217 23.3281 53.3448 23.0482C53.0552 21.972 52.8588 20.8749 52.5692 19.8021C52.2452 18.5939 51.8246 17.4101 51.4971 16.195C50.463 12.3517 49.4288 8.50155 48.3947 4.65137C48.3499 4.47431 48.2844 4.30419 48.2499 4.11325C47.9913 2.72454 48.6808 1.68302 50.0459 1.38445C51.5144 1.07546 52.6312 1.70732 52.907 3.12032C53.2517 4.83537 53.4861 6.57125 53.755 8.30365C54.5663 13.4881 55.3706 18.6761 56.168 23.8675C56.2025 24.0828 56.206 24.3015 56.2473 24.791" fill="#800000"/>
<path d="M80.6117 79.2209L83.5521 83.4565C86.1237 87.1597 88.6896 90.8629 91.2497 94.5661C91.5391 94.951 91.7553 95.3865 91.8874 95.8507C92.1563 96.9824 91.5186 97.9927 90.3258 98.4857C89.8342 98.7268 89.2684 98.7648 88.7493 98.5916C88.2303 98.4184 87.7989 98.0478 87.5474 97.5588C86.6994 96.118 85.91 94.6321 85.1034 93.1705C83.3798 90.0459 81.6562 86.9005 79.8912 83.7967C79.7202 83.5355 79.6142 83.2366 79.5824 82.9253C79.5506 82.614 79.5939 82.2996 79.7085 82.0088C80.0188 81.1755 80.2601 80.3215 80.6117 79.2314" fill="#800000"/>
<path d="M29.5277 51.1276C28.6762 51.0686 28.0281 51.0373 27.3801 50.9748C23.6537 50.6277 19.9307 50.2805 16.2043 49.9333C14.5462 49.7771 12.8847 49.6452 11.2266 49.4646C10.929 49.4471 10.6386 49.3659 10.3746 49.2265C10.1107 49.0872 9.87916 48.8928 9.69556 48.6563C9.51197 48.4198 9.38047 48.1467 9.30982 47.8551C9.23918 47.5635 9.231 47.26 9.28583 46.965C9.49956 45.3714 10.4855 44.4965 11.8885 44.7604C16.0251 45.5381 20.1617 46.3574 24.3224 47.1594C24.7857 47.2886 25.2582 47.3814 25.7358 47.4371C26.7285 47.4753 27.4007 48.0238 27.9454 48.7529C28.4901 49.482 28.9244 50.218 29.5277 51.138" fill="#800000"/>
<path d="M49.3693 20.0484L46.3151 20.8261C46.1676 20.6103 46.0318 20.3866 45.9083 20.156C43.9802 16.0108 42.0567 11.862 40.1377 7.7098C39.3897 6.08502 39.9137 4.77964 41.5166 4.23804C42.8679 3.76588 43.9538 4.23804 44.4364 5.62675C45.1568 7.65772 45.8359 9.70606 46.5357 11.744L49.2176 19.5485C49.2624 19.6874 49.2969 19.8297 49.3624 20.0693" fill="#800000"/>
<path d="M77.5878 85.8449C78.098 86.9142 78.4979 87.7509 78.8874 88.5842C80.457 91.961 82.022 95.339 83.5824 98.7182C83.6893 98.9543 83.8099 99.1834 83.903 99.4126C84.4718 100.874 83.934 102.044 82.4311 102.617C81.1384 103.113 79.9215 102.541 79.4389 101.152C78.1497 97.4232 76.8915 93.6842 75.5953 89.959C75.3264 89.1882 75.5953 88.5425 75.9642 87.9558C76.4653 87.2174 77.0074 86.508 77.5878 85.8311" fill="#800000"/>
<path d="M26.2493 44.389C24.4913 43.9099 22.8539 43.4655 21.213 43.0246C18.5001 42.2921 15.7975 41.5005 13.0604 40.8513C11.4885 40.4798 10.4337 39.0286 11.6299 36.9178C11.7765 36.6321 12.0026 36.3956 12.2805 36.2371C12.5584 36.0787 12.8762 36.0051 13.1949 36.0256C13.7454 36.0619 14.2877 36.1788 14.8047 36.3727C18.5725 37.8274 22.323 39.3133 26.0804 40.7923C27.1456 41.2124 27.1559 41.2228 26.856 42.3407C26.6802 42.9795 26.4803 43.6183 26.2493 44.3994" fill="#800000"/>
<path d="M33.3954 29.8524L30.5652 31.9563C30.3446 31.814 30.0964 31.6716 29.8758 31.505C26.7458 29.3108 23.618 27.112 20.4926 24.9086C20.274 24.7669 20.0645 24.6115 19.8652 24.4434C18.8759 23.5477 18.831 22.2284 19.7032 21.1626C20.6718 19.9996 21.7991 19.8121 22.8953 20.7495C26.3942 23.7456 29.8586 26.7764 33.4057 29.8489" fill="#800000"/>
<path d="M43.2065 21.5205C41.9414 21.6732 40.8762 21.7843 39.8214 21.9336C39.2836 22.01 39.1113 21.6108 38.8872 21.2879C37.6772 19.552 36.4742 17.7953 35.2711 16.049C34.299 14.6395 33.3097 13.2438 32.3583 11.8204C32.0925 11.4567 31.9492 11.0169 31.9492 10.5654C31.9492 10.1138 32.0925 9.67405 32.3583 9.31032C32.9856 8.5014 33.7854 7.99453 34.854 8.1577C35.1513 8.19596 35.4356 8.30341 35.6845 8.47153C35.9335 8.63966 36.1401 8.86384 36.288 9.12632C38.5563 13.1848 40.8142 17.2468 43.1824 21.5205" fill="#800000"/>
<path d="M91.4941 77.7802C92.1146 76.7386 92.1284 75.4992 93.0557 74.6035C94.4863 75.6173 95.8996 76.6276 97.3164 77.6344C99.495 79.1828 101.668 80.73 103.835 82.2761C104.59 82.8177 104.986 83.578 104.776 84.498C104.552 85.4875 104 86.2721 102.942 86.5429C102.022 86.7824 101.291 86.411 100.615 85.8173C98.5988 84.012 96.5615 82.2379 94.5277 80.4465C93.528 79.5716 92.5283 78.6898 91.4941 77.7802Z" fill="#800000"/>
<path d="M37.0869 24.2561C36.556 24.7561 35.9769 25.1102 35.6804 25.6448C35.4116 26.11 35.4598 26.7558 35.3357 27.4085C35.0806 27.1863 34.829 26.9919 34.6049 26.7662C31.7438 23.8985 28.8872 21.0297 26.0352 18.1597C25.8767 17.9965 25.7147 17.8473 25.5733 17.6737C24.6805 16.587 24.8425 15.1601 25.9629 14.2019C26.997 13.327 28.2931 13.4173 29.1998 14.5213C31.1888 16.9272 33.133 19.3818 35.0944 21.812C35.7218 22.5897 36.3458 23.3708 37.0731 24.2804" fill="#800000"/>
<path d="M28.6515 34.5983C28.0724 35.5912 27.5381 36.5182 26.959 37.5215C26.697 37.4139 26.4005 37.2959 26.1144 37.1744C22.7546 35.6121 19.397 34.0475 16.0418 32.4806C15.4971 32.2306 14.98 31.9667 14.6801 31.3974C14.4456 30.9063 14.3726 30.3527 14.4718 29.8171C14.571 29.2814 14.8372 28.7915 15.2317 28.4186C15.5858 28.0545 16.0547 27.8259 16.5579 27.7721C17.0611 27.7182 17.5673 27.8425 17.9894 28.1235C20.4679 29.6094 22.9327 31.1231 25.4043 32.6368L28.655 34.6192" fill="#800000"/>
<path d="M62.7269 89.9142C63.1509 91.1432 63.6508 92.3445 63.9748 93.6047C64.0627 94.0596 64.2733 94.4812 64.5834 94.8236C64.8935 95.1659 65.2912 95.4156 65.7329 95.5454C65.8708 95.594 65.9983 95.6739 66.1982 95.7711C66.2879 96.6564 66.3878 97.5729 66.4671 98.4929C66.6222 100.201 66.767 101.913 66.9118 103.617C66.9325 103.839 66.9463 104.065 66.9463 104.287C66.9463 105.735 66.1396 106.624 64.7401 106.697C63.2164 106.773 62.2064 105.926 62.165 104.419C62.1306 103.114 62.2202 101.808 62.2409 100.507C62.2891 97.5972 62.3236 94.6914 62.3788 91.7786C62.3788 91.1536 62.4512 90.5287 62.4891 89.9038H62.7269" fill="#800000"/>
<path d="M88.3232 84.3592C88.9713 83.21 89.5504 82.1789 90.202 81.0159C90.8259 81.6269 91.405 82.1754 91.96 82.7517C94.0283 84.8348 96.0817 86.9294 98.1201 89.0356C98.9923 89.9244 99.1991 90.7333 98.782 91.6394C98.3132 92.6497 97.2204 93.3475 96.1759 93.1566C95.6729 93.0718 95.2095 92.8288 94.8522 92.4622C92.6494 89.7994 90.5053 87.0914 88.3232 84.3731" fill="#800000"/>
<path d="M69.6627 94.4583C71.0415 94.8055 72.3136 95.1944 73.0926 93.3335C73.4029 94.4479 73.6235 95.1909 73.8269 95.9373C74.406 98.0967 75.0024 100.253 75.5505 102.416C76.0089 104.183 75.0368 105.44 73.2098 105.492C72.0929 105.526 71.2242 104.908 71.0347 103.822C70.5486 100.957 70.1074 98.0863 69.6558 95.2117C69.6408 94.9608 69.6408 94.7092 69.6558 94.4583" fill="#800000"/>
<path d="M83.9722 68.212L90.6287 72.8503C90.1219 73.7947 89.3039 74.5314 88.3156 74.9333C87.1643 73.9439 85.9888 72.9336 84.8202 71.9199C84.7378 71.8448 84.6791 71.747 84.6513 71.6386C84.3617 70.5346 84.0825 69.4306 83.7998 68.3266L83.9722 68.2051" fill="#800000"/>
<path d="M82.1359 76.683L84.442 75.2249C85.0005 75.7838 85.621 76.3566 86.1828 76.985C86.3421 77.2257 86.4272 77.5083 86.4276 77.7974C86.4517 78.2809 86.4517 78.7652 86.4276 79.2486C86.4276 80.179 86.4104 80.179 85.4968 80.8942C84.3972 79.5055 83.2907 78.1411 82.1221 76.683" fill="#800000"/>
<path d="M5.46618 135.498L4.48718 139.56H-0.338867L4.71469 122.059H10.9196L16.0904 139.56H11.0609L9.9544 135.508L5.46618 135.498ZM9.30978 132.026L8.51003 128.902C8.2515 127.916 7.91712 126.471 7.65858 125.43H7.60688C7.34834 126.471 7.0898 127.923 6.83471 128.902L6.08667 132.026H9.30978Z" fill="black"/>
<path d="M22.7153 122.049H18.0479V139.553H22.7153V122.049Z" fill="black"/>
<path d="M40.3522 133.29C40.3039 131.29 40.2488 128.954 40.2763 126.228H40.2005C39.6593 128.537 38.9354 131.162 38.3666 133.082L36.643 139.185H33.0063L31.5343 133.11C31.0965 131.214 30.5553 128.617 30.1554 126.228H30.1037C30.0003 128.693 29.8969 131.29 29.8211 133.29L29.5625 139.539H25.2949L26.3532 122.038H32.6167L33.7784 126.739C34.2438 128.683 34.7574 131.023 35.1194 133.151H35.2228C35.7123 131.023 36.2811 128.555 36.7947 126.711L38.0839 122.038H44.2199L45.099 139.56H40.5625L40.3522 133.29Z" fill="black"/>
<path d="M48.0109 134.877C49.4163 135.572 50.9575 135.944 52.5232 135.967C54.1227 135.967 54.8949 135.422 54.8949 134.537C54.8949 133.651 54.1227 133.19 52.1613 132.513C49.2243 131.471 47.2904 129.839 47.2904 127.242C47.2904 124.153 49.8689 121.761 54.2503 121.761C55.8699 121.719 57.4794 122.029 58.9694 122.67L57.987 126.409C56.7969 125.861 55.5036 125.578 54.1951 125.579C52.7783 125.579 52.0027 126.097 52.0027 126.878C52.0027 127.76 52.9334 128.124 55.1258 128.961C58.2283 130.107 59.6623 131.794 59.6623 134.235C59.6623 137.248 57.3148 139.841 52.2371 139.841C50.1481 139.841 48.1005 139.272 47.1318 138.751L48.0109 134.877Z" fill="black"/>
<path d="M71.8034 123.774L71.6241 124.423H71.0381L71.8034 121.896H72.548L73.327 124.423H72.7134L72.5204 123.774H71.8034ZM72.4376 123.347L72.2825 122.813C72.2377 122.66 72.1929 122.465 72.155 122.323C72.1205 122.472 72.0791 122.67 72.0412 122.813L71.8895 123.347H72.4376Z" fill="#800000"/>
<path d="M73.6583 124.423V123.01H73.417V122.59H73.6583V122.517C73.6542 122.405 73.6722 122.294 73.7113 122.189C73.7503 122.084 73.8097 121.988 73.8858 121.906C74.0257 121.783 74.2063 121.716 74.3925 121.719C74.4928 121.719 74.5925 121.733 74.689 121.761L74.6683 122.198C74.6095 122.178 74.5476 122.169 74.4856 122.17C74.2995 122.17 74.2202 122.316 74.2202 122.497V122.59H74.5856V123.01H74.2409V124.423H73.6583Z" fill="#800000"/>
<path d="M74.8795 123.194C74.8795 122.923 74.8795 122.746 74.8623 122.59H75.3483L75.369 122.937H75.3863C75.417 122.83 75.481 122.734 75.569 122.666C75.657 122.597 75.7645 122.558 75.8758 122.555C75.9159 122.552 75.9563 122.552 75.9964 122.555V123.094C75.9456 123.081 75.8935 123.076 75.8413 123.076C75.7532 123.069 75.6656 123.094 75.5946 123.147C75.5236 123.2 75.4741 123.277 75.4552 123.364C75.4515 123.407 75.4515 123.45 75.4552 123.493V124.423H74.8795V123.194Z" fill="#800000"/>
<path d="M76.857 122.08C76.8571 122.119 76.8492 122.158 76.8337 122.194C76.8182 122.23 76.7955 122.262 76.767 122.289C76.7385 122.316 76.7049 122.336 76.6682 122.349C76.6315 122.362 76.5925 122.367 76.5536 122.365C76.4988 122.36 76.4463 122.34 76.4026 122.307C76.3589 122.273 76.3259 122.227 76.3077 122.175C76.2894 122.123 76.2867 122.066 76.2998 122.013C76.313 121.959 76.3414 121.91 76.3816 121.872C76.4219 121.835 76.4722 121.809 76.5263 121.8C76.5805 121.791 76.6363 121.797 76.6867 121.819C76.7372 121.841 76.7802 121.878 76.8104 121.924C76.8407 121.97 76.8568 122.024 76.857 122.08ZM76.2744 122.59H76.8398V124.423H76.2744V122.59Z" fill="#800000"/>
<path d="M78.6706 124.374C78.5088 124.436 78.3365 124.464 78.1638 124.458C78.0373 124.47 77.9097 124.455 77.7896 124.412C77.6696 124.37 77.56 124.303 77.4684 124.214C77.3767 124.125 77.3052 124.018 77.2586 123.899C77.212 123.78 77.1916 123.652 77.1986 123.524C77.1957 123.389 77.221 123.256 77.2728 123.131C77.3246 123.007 77.4018 122.896 77.4994 122.804C77.597 122.712 77.7127 122.641 77.8391 122.597C77.9654 122.553 78.0996 122.537 78.2328 122.548C78.3794 122.548 78.5251 122.573 78.6637 122.621L78.574 123.041C78.4729 123.002 78.3652 122.983 78.2569 122.986C78.1198 122.986 77.9882 123.041 77.8913 123.138C77.7943 123.236 77.7398 123.368 77.7398 123.507C77.7398 123.645 77.7943 123.777 77.8913 123.875C77.9882 123.972 78.1198 124.027 78.2569 124.027C78.3677 124.029 78.4778 124.009 78.5809 123.968L78.6706 124.374Z" fill="#800000"/>
<path d="M80.5015 123.979C80.498 124.127 80.5072 124.276 80.5291 124.423H80.0224L79.9879 124.239C79.9232 124.313 79.8429 124.372 79.7529 124.411C79.6628 124.45 79.5653 124.468 79.4674 124.465C79.3915 124.469 79.3155 124.458 79.2442 124.431C79.1728 124.405 79.1075 124.364 79.0523 124.312C78.9971 124.259 78.9532 124.195 78.9232 124.125C78.8932 124.055 78.8778 123.979 78.8779 123.902C78.8779 123.427 79.3019 123.208 79.9466 123.208V123.184C79.9466 123.083 79.8948 122.944 79.6018 122.944C79.425 122.946 79.2518 122.994 79.0985 123.083L78.9951 122.736C79.2123 122.614 79.4566 122.549 79.7053 122.548C79.8133 122.53 79.9242 122.538 80.0288 122.571C80.1333 122.604 80.2284 122.662 80.3063 122.74C80.3841 122.818 80.4425 122.913 80.4764 123.018C80.5104 123.123 80.519 123.234 80.5015 123.343V123.979ZM79.9534 123.555C79.657 123.555 79.426 123.628 79.426 123.847C79.4244 123.876 79.4291 123.906 79.4399 123.934C79.4508 123.961 79.4674 123.986 79.4887 124.007C79.51 124.027 79.5355 124.043 79.5633 124.052C79.5912 124.062 79.6208 124.065 79.6501 124.062C79.7142 124.062 79.7767 124.042 79.8291 124.004C79.8815 123.967 79.9213 123.915 79.9431 123.854C79.9467 123.821 79.9467 123.789 79.9431 123.757L79.9534 123.555Z" fill="#800000"/>
<path d="M80.9482 123.173C80.9482 122.948 80.9482 122.753 80.9482 122.59H81.4274L81.4515 122.844C81.5132 122.751 81.597 122.675 81.6951 122.624C81.7933 122.572 81.9027 122.546 82.0134 122.548C82.3857 122.548 82.6649 122.798 82.6649 123.34V124.423H82.1168V123.406C82.1168 123.17 82.0341 123.01 81.8307 123.01C81.7667 123.011 81.7044 123.032 81.6526 123.07C81.6007 123.108 81.5618 123.161 81.5412 123.222C81.5245 123.267 81.5174 123.316 81.5205 123.364V124.406H80.9551L80.9482 123.173Z" fill="#800000"/>
<path d="M84.4687 121.896H83.9033V124.42H84.4687V121.896Z" fill="#800000"/>
<path d="M84.9512 123.173C84.9512 122.948 84.9512 122.753 84.9512 122.59H85.4407L85.4682 122.844C85.5299 122.751 85.6137 122.675 85.7118 122.624C85.81 122.572 85.9194 122.546 86.0301 122.548C86.4024 122.548 86.6817 122.798 86.6817 123.34V124.423H86.1163V123.406C86.1163 123.17 86.0336 123.01 85.8302 123.01C85.7661 123.011 85.7039 123.032 85.652 123.07C85.6002 123.108 85.5613 123.161 85.5406 123.222C85.5261 123.268 85.5191 123.316 85.52 123.364V124.406H84.9546L84.9512 123.173Z" fill="#800000"/>
<path d="M87.1302 123.937C87.2791 124.021 87.4458 124.068 87.6163 124.073C87.7887 124.073 87.8576 124.017 87.8576 123.923C87.8576 123.83 87.8024 123.781 87.5922 123.712C87.2164 123.583 87.0682 123.364 87.0716 123.16C87.0716 122.812 87.3646 122.556 87.8128 122.556C87.9886 122.553 88.1628 122.59 88.323 122.663L88.2264 123.059C88.1053 122.993 87.9709 122.957 87.8335 122.951C87.6956 122.951 87.6163 123.01 87.6163 123.101C87.6163 123.191 87.6887 123.233 87.9093 123.312C88.254 123.434 88.3988 123.611 88.4023 123.878C88.4023 124.225 88.1368 124.475 87.6163 124.475C87.4134 124.478 87.2126 124.433 87.0303 124.343L87.1302 123.937Z" fill="#800000"/>
<path d="M89.3808 122.094V122.59H89.7841V123.01H89.3808V123.673C89.3808 123.896 89.436 123.996 89.6014 123.996C89.6575 124.003 89.7142 124.003 89.7703 123.996V124.427C89.6513 124.459 89.5283 124.475 89.4049 124.472C89.2477 124.478 89.0943 124.422 88.9775 124.316C88.8588 124.162 88.8033 123.968 88.8224 123.774V123.024H88.5811V122.604H88.8224V122.257L89.3808 122.094Z" fill="#800000"/>
<path d="M90.6974 122.08C90.6976 122.119 90.6895 122.159 90.6738 122.195C90.6581 122.231 90.6351 122.264 90.6063 122.29C90.5774 122.317 90.5433 122.338 90.5062 122.35C90.4691 122.363 90.4297 122.368 90.3906 122.365C90.3156 122.365 90.2437 122.335 90.1907 122.281C90.1377 122.228 90.1079 122.155 90.1079 122.08C90.1079 122.004 90.1377 121.932 90.1907 121.879C90.2437 121.825 90.3156 121.795 90.3906 121.795C90.4291 121.793 90.4678 121.798 90.5041 121.812C90.5404 121.825 90.5736 121.846 90.6017 121.872C90.6298 121.899 90.6522 121.931 90.6675 121.967C90.6827 122.003 90.6906 122.041 90.6905 122.08M90.1045 122.59H90.6698V124.423H90.1045V122.59Z" fill="#800000"/>
<path d="M91.7695 122.094V122.59H92.1762V123.01H91.7695V123.673C91.7695 123.896 91.8246 123.996 91.9935 123.996C92.0497 124.002 92.1063 124.002 92.1625 123.996V124.427C92.0434 124.459 91.9204 124.474 91.797 124.472C91.6398 124.478 91.4864 124.422 91.3696 124.316C91.2494 124.163 91.1925 123.968 91.211 123.774V123.024H90.9697V122.604H91.211V122.257L91.7695 122.094Z" fill="#800000"/>
<path d="M94.2103 123.833C94.2103 124.076 94.2103 124.267 94.2275 124.423H93.7346L93.7104 124.163C93.6504 124.259 93.5662 124.338 93.4663 124.391C93.3665 124.444 93.2545 124.469 93.1416 124.465C92.7693 124.465 92.5039 124.232 92.5039 123.666V122.59H93.0692V123.59C93.0692 123.857 93.152 124.017 93.3554 124.017C93.417 124.017 93.4771 123.998 93.5277 123.963C93.5783 123.928 93.6168 123.877 93.638 123.819C93.6525 123.779 93.6595 123.737 93.6587 123.694V122.604H94.224L94.2103 123.833Z" fill="#800000"/>
<path d="M95.2968 122.094V122.59H95.7036V123.01H95.2968V123.673C95.2968 123.896 95.352 123.996 95.5209 123.996C95.577 124.003 95.6337 124.003 95.6898 123.996V124.427C95.5707 124.459 95.4477 124.474 95.3244 124.472C95.1671 124.478 95.0137 124.422 94.8969 124.316C94.7782 124.162 94.7227 123.968 94.7418 123.774V123.024H94.4971V122.604H94.7418V122.257L95.2968 122.094Z" fill="#800000"/>
<path d="M96.4474 123.687C96.4474 123.923 96.6956 124.034 96.961 124.034C97.1309 124.037 97.3 124.01 97.4609 123.954L97.5367 124.34C97.3272 124.423 97.1034 124.463 96.8783 124.458C96.751 124.472 96.6221 124.459 96.5006 124.417C96.3792 124.376 96.2682 124.309 96.1755 124.22C96.0828 124.131 96.0107 124.022 95.9641 123.902C95.9176 123.782 95.8978 123.653 95.9062 123.524C95.8981 123.398 95.916 123.271 95.9587 123.152C96.0014 123.033 96.0681 122.924 96.1545 122.832C96.2408 122.741 96.3451 122.668 96.4608 122.618C96.5764 122.569 96.7009 122.544 96.8266 122.545C96.9419 122.544 97.0561 122.568 97.1615 122.615C97.267 122.662 97.3612 122.732 97.4379 122.818C97.5145 122.905 97.572 123.007 97.6062 123.118C97.6405 123.229 97.6509 123.346 97.6367 123.462C97.6424 123.535 97.6424 123.61 97.6367 123.684L96.4474 123.687ZM97.1127 123.298C97.116 123.253 97.1103 123.207 97.0959 123.164C97.0816 123.12 97.0588 123.08 97.0291 123.046C96.9993 123.011 96.963 122.983 96.9223 122.962C96.8817 122.942 96.8374 122.93 96.7921 122.927C96.6988 122.934 96.6116 122.976 96.5477 123.045C96.4838 123.114 96.448 123.204 96.4474 123.298H97.1127Z" fill="#800000"/>
<path d="M98.795 124.423V123.01H98.5537V122.59H98.795V122.517C98.7905 122.406 98.808 122.294 98.8464 122.189C98.8849 122.084 98.9435 121.988 99.0191 121.906C99.1594 121.783 99.3398 121.717 99.5258 121.719C99.6272 121.719 99.728 121.733 99.8257 121.76L99.8016 122.201C99.7427 122.182 99.6809 122.172 99.6189 122.174C99.4327 122.174 99.3569 122.319 99.3569 122.5V122.594H99.7223V123.014H99.3535V124.427L98.795 124.423Z" fill="#800000"/>
<path d="M101.767 123.486C101.776 123.616 101.757 123.746 101.712 123.868C101.666 123.99 101.596 124.101 101.505 124.193C101.414 124.286 101.305 124.358 101.184 124.405C101.064 124.452 100.934 124.472 100.805 124.465C100.68 124.472 100.555 124.452 100.438 124.407C100.321 124.362 100.215 124.293 100.126 124.204C100.037 124.115 99.9679 124.008 99.9229 123.89C99.8778 123.773 99.8579 123.647 99.8644 123.521C99.8556 123.39 99.8749 123.258 99.9209 123.135C99.9669 123.013 100.039 122.901 100.131 122.809C100.224 122.716 100.335 122.645 100.457 122.599C100.579 122.554 100.71 122.535 100.84 122.545C100.964 122.539 101.088 122.559 101.203 122.604C101.319 122.65 101.424 122.719 101.511 122.808C101.599 122.896 101.667 123.003 101.711 123.119C101.755 123.236 101.774 123.361 101.767 123.486ZM100.45 123.503C100.45 123.819 100.578 124.055 100.823 124.055C101.067 124.055 101.167 123.833 101.167 123.5C101.167 123.232 101.064 122.955 100.823 122.955C100.581 122.955 100.45 123.236 100.45 123.503Z" fill="#800000"/>
<path d="M102.111 123.194C102.111 122.924 102.111 122.747 102.111 122.59H102.594L102.615 122.938H102.632C102.664 122.83 102.728 122.735 102.817 122.666C102.905 122.598 103.013 122.559 103.125 122.556C103.164 122.552 103.203 122.552 103.242 122.556V123.094C103.192 123.082 103.141 123.076 103.09 123.076C103.002 123.069 102.914 123.094 102.842 123.147C102.771 123.2 102.72 123.277 102.701 123.365C102.697 123.407 102.697 123.45 102.701 123.493V124.423H102.111V123.194Z" fill="#800000"/>
<path d="M73.3411 127.489C73.3411 127.183 73.3169 126.815 73.3169 126.447C73.2342 126.767 73.1308 127.142 73.0343 127.423L72.7309 128.409H72.2862L72.0174 127.437C71.9381 127.135 71.8553 126.777 71.7933 126.447C71.7933 126.795 71.7692 127.176 71.7519 127.489L71.7037 128.447H71.1797L71.3417 125.923H72.0966L72.3414 126.763C72.4241 127.058 72.4965 127.371 72.5517 127.669H72.5689C72.6344 127.374 72.7206 127.041 72.8068 126.76L73.0722 125.923H73.8133L73.9478 128.447H73.3997L73.3411 127.489Z" fill="#800000"/>
<path d="M75.8716 128.013C75.8726 128.16 75.8865 128.306 75.9129 128.45H75.4028L75.3683 128.266C75.304 128.341 75.2238 128.4 75.1337 128.439C75.0435 128.478 74.9458 128.496 74.8478 128.492C74.772 128.496 74.6962 128.485 74.625 128.458C74.5538 128.432 74.4888 128.391 74.4338 128.339C74.3789 128.286 74.3353 128.222 74.3057 128.152C74.2761 128.082 74.2611 128.006 74.2617 127.93C74.2617 127.454 74.6857 127.235 75.3269 127.235V127.214C75.3269 127.11 75.2752 126.975 74.9822 126.975C74.8069 126.977 74.6349 127.023 74.4824 127.11L74.3755 126.746C74.5947 126.631 74.8388 126.574 75.0856 126.579C75.1934 126.561 75.3039 126.569 75.408 126.603C75.5121 126.636 75.6067 126.694 75.6842 126.772C75.7616 126.85 75.8196 126.945 75.8534 127.05C75.8872 127.154 75.8958 127.265 75.8785 127.374L75.8716 128.013ZM75.3269 127.589C75.027 127.589 74.7961 127.659 74.7961 127.878C74.7944 127.907 74.7991 127.937 74.81 127.964C74.8208 127.992 74.8374 128.017 74.8587 128.037C74.88 128.058 74.9055 128.073 74.9334 128.083C74.9612 128.092 74.9908 128.096 75.0201 128.093C75.0846 128.094 75.1478 128.074 75.2005 128.037C75.2532 127.999 75.2926 127.946 75.3131 127.884C75.3184 127.852 75.3184 127.819 75.3131 127.787L75.3269 127.589Z" fill="#800000"/>
<path d="M76.9267 126.128V126.621H77.3335V127.041H76.9267V127.704C76.9267 127.926 76.9818 128.027 77.1473 128.027C77.2034 128.033 77.2601 128.033 77.3162 128.027V128.451C77.1979 128.487 77.0745 128.503 76.9508 128.499C76.7938 128.504 76.6409 128.448 76.5234 128.343C76.4045 128.188 76.349 127.993 76.3683 127.798V127.048H76.127V126.628H76.3683V126.281L76.9267 126.128Z" fill="#800000"/>
<path d="M77.6563 125.794H78.2216V126.836C78.2802 126.755 78.357 126.69 78.4457 126.645C78.5366 126.599 78.637 126.575 78.7387 126.576C79.0834 126.576 79.3764 126.826 79.3764 127.381V128.45H78.8111V127.444C78.8111 127.204 78.7284 127.037 78.5181 127.037C78.4769 127.039 78.4364 127.048 78.3988 127.065C78.3613 127.082 78.3274 127.107 78.2993 127.137C78.2711 127.167 78.2491 127.203 78.2346 127.242C78.2201 127.281 78.2134 127.322 78.2147 127.364V128.45H77.6494L77.6563 125.794Z" fill="#800000"/>
<path d="M80.2745 127.718C80.2745 127.954 80.5227 128.065 80.7882 128.065C80.9592 128.067 81.1293 128.04 81.2915 127.985L81.3638 128.371C81.1543 128.453 80.9305 128.494 80.7054 128.489C80.5781 128.503 80.4492 128.489 80.3278 128.448C80.2064 128.407 80.0954 128.34 80.0027 128.251C79.91 128.161 79.8378 128.053 79.7913 127.933C79.7447 127.813 79.725 127.684 79.7333 127.555C79.7253 127.428 79.7432 127.302 79.7859 127.183C79.8286 127.064 79.8952 126.955 79.9816 126.863C80.068 126.771 80.1723 126.698 80.2879 126.649C80.4036 126.599 80.5281 126.575 80.6537 126.576C80.7691 126.575 80.8833 126.599 80.9887 126.646C81.0941 126.693 81.1883 126.762 81.265 126.849C81.3417 126.936 81.3991 127.038 81.4334 127.149C81.4677 127.26 81.4781 127.377 81.4638 127.492C81.464 127.567 81.4582 127.641 81.4466 127.714L80.2745 127.718ZM80.9398 127.329C80.9431 127.283 80.9374 127.238 80.9231 127.194C80.9087 127.151 80.886 127.111 80.8562 127.076C80.8264 127.042 80.7901 127.013 80.7495 126.993C80.7088 126.973 80.6646 126.961 80.6193 126.958C80.526 126.965 80.4387 127.007 80.3748 127.076C80.311 127.144 80.2751 127.235 80.2745 127.329H80.9398Z" fill="#800000"/>
<path d="M81.8003 127.207C81.8003 126.978 81.8003 126.787 81.8003 126.621H82.2795L82.3036 126.871C82.362 126.777 82.4436 126.701 82.5403 126.649C82.6371 126.597 82.7456 126.572 82.8552 126.576C82.9601 126.57 83.0642 126.598 83.153 126.654C83.2419 126.711 83.3112 126.794 83.3515 126.892C83.4159 126.801 83.498 126.724 83.5929 126.666C83.6979 126.606 83.8168 126.575 83.9376 126.576C84.2823 126.576 84.5512 126.822 84.5512 127.374V128.45H83.9996V127.454C83.9996 127.187 83.9134 127.034 83.7342 127.034C83.6749 127.035 83.6174 127.054 83.5698 127.09C83.5222 127.125 83.4868 127.175 83.4688 127.232C83.4573 127.281 83.4515 127.331 83.4515 127.381V128.45H82.9V127.409C82.9 127.183 82.8172 127.023 82.6345 127.023C82.5754 127.026 82.5185 127.047 82.4712 127.083C82.4239 127.119 82.3883 127.168 82.3691 127.225C82.3535 127.273 82.3465 127.323 82.3484 127.374V128.45H81.7969L81.8003 127.207Z" fill="#800000"/>
<path d="M86.5157 128.013C86.5122 128.16 86.5214 128.308 86.5433 128.454H86.0331L86.002 128.27C85.9378 128.345 85.8576 128.404 85.7674 128.443C85.6773 128.482 85.5796 128.5 85.4815 128.496C85.4059 128.499 85.3303 128.488 85.2593 128.461C85.1884 128.434 85.1235 128.394 85.0687 128.341C85.0139 128.288 84.9703 128.225 84.9405 128.155C84.9107 128.085 84.8954 128.009 84.8955 127.933C84.8955 127.457 85.3195 127.239 85.9641 127.239V127.218C85.9641 127.114 85.9124 126.978 85.6194 126.978C85.4441 126.98 85.2721 127.027 85.1196 127.114L85.0127 126.749C85.232 126.635 85.4761 126.578 85.7228 126.583C85.8309 126.564 85.9418 126.572 86.0463 126.605C86.1509 126.638 86.246 126.696 86.3239 126.774C86.4017 126.852 86.46 126.947 86.494 127.052C86.528 127.157 86.5366 127.269 86.5191 127.378L86.5157 128.013ZM85.9676 127.589C85.6711 127.589 85.4402 127.659 85.4402 127.878C85.4385 127.907 85.4433 127.937 85.4541 127.964C85.4649 127.992 85.4815 128.017 85.5028 128.037C85.5242 128.058 85.5496 128.073 85.5775 128.083C85.6053 128.092 85.6349 128.096 85.6642 128.093C85.7286 128.093 85.7915 128.074 85.8441 128.036C85.8967 127.999 85.9363 127.946 85.9572 127.885C85.9608 127.852 85.9608 127.82 85.9572 127.787L85.9676 127.589Z" fill="#800000"/>
<path d="M87.5678 126.128V126.621H87.978V127.041H87.5712V127.704C87.5712 127.926 87.6264 128.027 87.7953 128.027C87.8503 128.033 87.9058 128.033 87.9608 128.027V128.451C87.8424 128.487 87.719 128.503 87.5954 128.499C87.4384 128.503 87.2858 128.447 87.1679 128.343C87.049 128.188 86.9935 127.993 87.0128 127.798V127.048H86.7715V126.628H87.0128V126.281L87.5678 126.128Z" fill="#800000"/>
<path d="M88.885 126.114C88.8851 126.154 88.8771 126.193 88.8614 126.229C88.8457 126.265 88.8227 126.298 88.7939 126.324C88.765 126.351 88.7309 126.372 88.6938 126.384C88.6567 126.397 88.6173 126.402 88.5782 126.399C88.5401 126.401 88.502 126.395 88.4663 126.381C88.4306 126.368 88.398 126.347 88.3705 126.32C88.3431 126.294 88.3213 126.262 88.3066 126.226C88.292 126.191 88.2847 126.152 88.2852 126.114C88.2852 126.034 88.3168 125.957 88.373 125.9C88.4293 125.844 88.5055 125.812 88.5851 125.812C88.6646 125.812 88.7409 125.844 88.7971 125.9C88.8534 125.957 88.885 126.034 88.885 126.114ZM88.3024 126.621H88.8677V128.451H88.3024V126.621Z" fill="#800000"/>
<path d="M90.6837 128.405C90.5222 128.468 90.3499 128.498 90.1769 128.492C90.0505 128.503 89.9232 128.487 89.8036 128.444C89.684 128.401 89.5749 128.333 89.4837 128.244C89.3925 128.155 89.3213 128.048 89.275 127.929C89.2287 127.81 89.2083 127.682 89.2152 127.555C89.2122 127.42 89.2375 127.286 89.2893 127.162C89.3412 127.038 89.4184 126.926 89.516 126.834C89.6135 126.742 89.7293 126.672 89.8556 126.628C89.982 126.584 90.1161 126.567 90.2493 126.579C90.396 126.579 90.5417 126.603 90.6802 126.652L90.5975 127.062C90.4982 127.02 90.3911 127.001 90.2838 127.006C90.1562 127.017 90.0372 127.075 89.9504 127.17C89.8637 127.265 89.8155 127.389 89.8155 127.518C89.8155 127.647 89.8637 127.771 89.9504 127.866C90.0372 127.961 90.1562 128.02 90.2838 128.03C90.3947 128.034 90.5051 128.014 90.6078 127.971L90.6837 128.405Z" fill="#800000"/>
<path d="M92.5249 128.013C92.5224 128.161 92.5328 128.308 92.556 128.454H92.0458L92.0148 128.27C91.9505 128.345 91.8703 128.404 91.7801 128.443C91.69 128.482 91.5923 128.5 91.4942 128.496C91.4185 128.5 91.3427 128.488 91.2715 128.462C91.2003 128.436 91.1352 128.395 91.0803 128.342C91.0254 128.289 90.9818 128.226 90.9522 128.156C90.9226 128.085 90.9076 128.01 90.9082 127.933C90.9082 127.457 91.3322 127.239 91.9734 127.239V127.218C91.9734 127.114 91.9217 126.978 91.6287 126.978C91.4534 126.98 91.2814 127.027 91.1288 127.114L91.022 126.749C91.24 126.635 91.483 126.578 91.7286 126.583C91.8367 126.564 91.9476 126.572 92.0522 126.605C92.1567 126.638 92.2518 126.696 92.3297 126.774C92.4075 126.852 92.4659 126.947 92.4998 127.052C92.5338 127.157 92.5424 127.269 92.5249 127.378V128.013ZM91.9803 127.589C91.6804 127.589 91.4529 127.659 91.4529 127.878C91.4507 127.907 91.455 127.937 91.4654 127.964C91.4758 127.992 91.4921 128.017 91.5131 128.037C91.5342 128.058 91.5595 128.073 91.5872 128.083C91.6149 128.093 91.6444 128.096 91.6735 128.093C91.738 128.094 91.8011 128.074 91.8538 128.037C91.9065 127.999 91.946 127.946 91.9665 127.885C91.9718 127.852 91.9718 127.819 91.9665 127.787L91.9803 127.589Z" fill="#800000"/>
<path d="M93.5419 125.794H92.9766V128.454H93.5419V125.794Z" fill="#800000"/>
<path d="M94.7866 127.867C94.9827 127.966 95.1982 128.019 95.4174 128.023C95.676 128.023 95.8139 127.916 95.8139 127.749C95.8139 127.583 95.6967 127.503 95.3933 127.402C94.9762 127.249 94.7039 127.017 94.7039 126.652C94.7039 126.222 95.0486 125.895 95.6518 125.895C95.8721 125.889 96.0909 125.932 96.293 126.02L96.1655 126.479C96.0032 126.4 95.8251 126.359 95.6449 126.361C95.4002 126.361 95.2795 126.475 95.2795 126.604C95.2795 126.732 95.4174 126.836 95.7449 126.951C96.1862 127.117 96.393 127.35 96.393 127.704C96.393 128.128 96.0724 128.489 95.383 128.489C95.1373 128.491 94.8944 128.436 94.6729 128.329L94.7866 127.867Z" fill="#800000"/>
<path d="M98.1505 128.405C97.989 128.468 97.8167 128.498 97.6437 128.492C97.5173 128.503 97.39 128.487 97.2704 128.444C97.1508 128.401 97.0417 128.333 96.9505 128.244C96.8593 128.156 96.7881 128.048 96.7418 127.929C96.6955 127.81 96.6751 127.682 96.682 127.555C96.6785 127.42 96.7034 127.286 96.755 127.162C96.8067 127.037 96.8839 126.925 96.9816 126.833C97.0793 126.741 97.1952 126.671 97.3219 126.627C97.4485 126.583 97.5828 126.567 97.7161 126.579C97.8628 126.579 98.0085 126.603 98.147 126.652L98.0574 127.076C97.957 127.034 97.8487 127.015 97.7403 127.02C97.6126 127.031 97.4936 127.089 97.4069 127.184C97.3201 127.279 97.272 127.403 97.272 127.532C97.272 127.661 97.3201 127.785 97.4069 127.88C97.4936 127.975 97.6126 128.034 97.7403 128.044C97.8501 128.048 97.9594 128.028 98.0608 127.985L98.1505 128.405Z" fill="#800000"/>
<path d="M99.0458 126.114C99.0485 126.174 99.0332 126.234 99.0018 126.286C98.9705 126.337 98.9244 126.378 98.8697 126.403C98.815 126.428 98.7542 126.436 98.695 126.425C98.6358 126.415 98.5811 126.387 98.5379 126.345C98.4947 126.303 98.465 126.249 98.4527 126.19C98.4404 126.131 98.4459 126.069 98.4687 126.013C98.4915 125.957 98.5304 125.91 98.5804 125.876C98.6305 125.843 98.6893 125.825 98.7493 125.826C98.7879 125.824 98.8264 125.83 98.8626 125.844C98.8987 125.857 98.9317 125.878 98.9594 125.905C98.9872 125.932 99.0092 125.965 99.0241 126.001C99.0389 126.036 99.0463 126.075 99.0458 126.114ZM98.4632 126.621H99.0251V128.45H98.4632V126.621Z" fill="#800000"/>
<path d="M99.9193 127.718C99.9193 127.954 100.168 128.065 100.43 128.065C100.601 128.068 100.771 128.041 100.933 127.985L101.009 128.371C100.799 128.453 100.575 128.494 100.35 128.489C100.223 128.504 100.094 128.49 99.9719 128.449C99.8502 128.409 99.739 128.341 99.6461 128.252C99.5533 128.163 99.4811 128.054 99.4348 127.933C99.3885 127.813 99.3691 127.684 99.3781 127.555C99.3701 127.428 99.3879 127.302 99.4307 127.183C99.4734 127.064 99.54 126.955 99.6264 126.863C99.7128 126.771 99.8171 126.698 99.9327 126.649C100.048 126.599 100.173 126.575 100.299 126.576C100.414 126.575 100.528 126.599 100.633 126.646C100.739 126.693 100.833 126.762 100.91 126.849C100.986 126.936 101.044 127.038 101.078 127.149C101.112 127.26 101.123 127.377 101.109 127.492C101.11 127.567 101.103 127.641 101.088 127.714L99.9193 127.718ZM100.585 127.329C100.588 127.283 100.582 127.238 100.568 127.194C100.554 127.151 100.531 127.111 100.501 127.076C100.471 127.042 100.435 127.013 100.394 126.993C100.354 126.973 100.309 126.961 100.264 126.958C100.171 126.966 100.085 127.009 100.021 127.077C99.9578 127.146 99.9215 127.235 99.9193 127.329H100.585Z" fill="#800000"/>
<path d="M101.446 127.207C101.446 126.978 101.446 126.787 101.429 126.621H101.922L101.949 126.878C102.01 126.784 102.094 126.708 102.192 126.656C102.29 126.605 102.4 126.579 102.511 126.583C102.883 126.583 103.163 126.833 103.163 127.371V128.45H102.597V127.437C102.597 127.201 102.515 127.037 102.311 127.037C102.247 127.038 102.184 127.059 102.132 127.098C102.08 127.136 102.041 127.191 102.022 127.253C102.005 127.298 101.998 127.347 102.001 127.395V128.436H101.436L101.446 127.207Z" fill="#800000"/>
<path d="M104.99 128.405C104.83 128.468 104.659 128.497 104.487 128.492C104.36 128.504 104.233 128.488 104.113 128.445C103.993 128.403 103.883 128.335 103.791 128.246C103.7 128.157 103.628 128.049 103.582 127.93C103.535 127.811 103.515 127.683 103.522 127.555C103.519 127.42 103.544 127.286 103.596 127.162C103.648 127.038 103.725 126.926 103.823 126.834C103.92 126.742 104.036 126.672 104.162 126.628C104.289 126.584 104.423 126.567 104.556 126.579C104.703 126.578 104.848 126.603 104.987 126.652L104.904 127.062C104.805 127.02 104.698 127.001 104.59 127.006C104.463 127.017 104.344 127.075 104.257 127.17C104.17 127.265 104.122 127.389 104.122 127.518C104.122 127.647 104.17 127.771 104.257 127.866C104.344 127.961 104.463 128.02 104.59 128.03C104.701 128.034 104.812 128.014 104.914 127.971L104.99 128.405Z" fill="#800000"/>
<path d="M105.696 127.718C105.713 127.954 105.948 128.065 106.21 128.065C106.381 128.068 106.551 128.041 106.713 127.985L106.789 128.371C106.579 128.454 106.356 128.494 106.131 128.489C106.003 128.504 105.874 128.49 105.752 128.45C105.63 128.409 105.519 128.341 105.426 128.252C105.334 128.163 105.261 128.054 105.215 127.934C105.169 127.813 105.149 127.684 105.158 127.555C105.15 127.429 105.167 127.302 105.21 127.183C105.252 127.064 105.318 126.955 105.404 126.863C105.49 126.771 105.594 126.698 105.71 126.649C105.825 126.599 105.95 126.574 106.075 126.576C106.191 126.574 106.306 126.598 106.411 126.645C106.517 126.692 106.612 126.761 106.689 126.848C106.766 126.935 106.824 127.037 106.858 127.148C106.893 127.259 106.903 127.377 106.889 127.492C106.89 127.567 106.883 127.641 106.868 127.714L105.696 127.718ZM106.365 127.329C106.368 127.283 106.362 127.238 106.348 127.194C106.334 127.151 106.311 127.111 106.281 127.076C106.251 127.042 106.215 127.014 106.175 126.993C106.134 126.973 106.09 126.961 106.044 126.958C105.952 126.966 105.865 127.009 105.802 127.077C105.738 127.146 105.702 127.235 105.7 127.329H106.365Z" fill="#800000"/>
<path d="M107.223 127.961C107.373 128.041 107.539 128.086 107.709 128.093C107.881 128.093 107.954 128.037 107.954 127.943C107.954 127.85 107.895 127.801 107.688 127.732C107.309 127.603 107.164 127.384 107.168 127.18C107.168 126.832 107.457 126.576 107.909 126.576C108.084 126.573 108.258 126.611 108.416 126.687L108.319 127.079C108.198 127.014 108.063 126.979 107.926 126.975C107.788 126.975 107.709 127.03 107.709 127.121C107.709 127.211 107.781 127.256 108.002 127.336C108.347 127.454 108.492 127.634 108.495 127.898C108.495 128.245 108.23 128.495 107.709 128.495C107.506 128.5 107.305 128.454 107.123 128.364L107.223 127.961Z" fill="#800000"/>
<path d="M65.806 122.014H64.9648V139.602H65.806V122.014Z" fill="#800000"/>
<path d="M72.3483 130.957H71.4658V134.273H72.3483V130.957Z" fill="black"/>
<path d="M72.876 134.273V130.957H73.9101L74.4341 131.978C74.6302 132.353 74.8029 132.74 74.9512 133.137C74.9029 132.676 74.8799 132.212 74.8822 131.749V130.961H75.6889V134.276H74.7616L74.1997 133.175C74.0204 132.828 73.8033 132.377 73.6481 131.981H73.6275C73.6516 132.429 73.6619 132.926 73.6619 133.46V134.276L72.876 134.273Z" fill="black"/>
<path d="M78.7192 132.853L78.5675 132.269C78.5193 132.085 78.4572 131.815 78.4055 131.617C78.3572 131.815 78.3055 132.085 78.2573 132.269L78.1159 132.866L78.7192 132.853ZM77.9815 133.505L77.7953 134.273H76.8818L77.8402 130.957H79.0156L79.9981 134.273H79.0501L78.8398 133.505H77.9815Z" fill="black"/>
<path d="M80.3428 130.957H82.4593V131.686H81.2287V132.297H82.3835V133.012H81.2287V134.273H80.3428V130.957Z" fill="black"/>
<path d="M83.8004 132.391H84.0279C84.3726 132.391 84.5519 132.228 84.5519 131.981C84.5519 131.735 84.3899 131.592 84.0968 131.592C83.9976 131.589 83.8982 131.596 83.8004 131.613V132.391ZM82.9248 131.002C83.2774 130.949 83.6335 130.923 83.99 130.926C84.3793 130.889 84.77 130.981 85.1034 131.186C85.2104 131.271 85.2955 131.381 85.3513 131.506C85.4071 131.631 85.4321 131.768 85.424 131.905C85.4192 132.079 85.3637 132.248 85.2644 132.39C85.1651 132.533 85.0264 132.643 84.8656 132.707C84.974 132.77 85.0675 132.856 85.1395 132.959C85.2115 133.062 85.2604 133.18 85.2827 133.304C85.3826 133.651 85.4895 134.123 85.5516 134.252H84.6553C84.5516 134.005 84.4742 133.748 84.4243 133.485C84.3381 133.092 84.2141 133.009 83.9417 133.009H83.8004V134.252H82.9248V131.002Z" fill="black"/>
<path d="M86.7409 130.957H85.8584V134.273H86.7409V130.957Z" fill="black"/>
<path d="M89.729 134.186C89.4659 134.285 89.186 134.331 88.9052 134.321C87.6745 134.321 87.1299 133.551 87.1299 132.669C87.1299 131.506 87.9813 130.909 88.9638 130.909C89.2428 130.901 89.5205 130.949 89.7808 131.051L89.6118 131.745C89.4182 131.666 89.2108 131.626 89.0017 131.627C88.7552 131.644 88.5246 131.756 88.357 131.939C88.1895 132.122 88.0976 132.362 88.1003 132.611C88.1029 132.86 88.1998 133.098 88.3713 133.277C88.5427 133.456 88.7756 133.563 89.0224 133.575C89.2203 133.575 89.417 133.543 89.605 133.481L89.729 134.186Z" fill="black"/>
<path d="M91.7698 132.853L91.6182 132.255L91.4596 131.603C91.4113 131.801 91.3631 132.071 91.3148 132.255L91.1735 132.853H91.7698ZM91.0425 133.505L90.8598 134.273H89.9463L90.9012 130.957H92.0732L93.0556 134.273H92.1146L91.9043 133.505H91.0425Z" fill="black"/>
<path d="M94.0285 130.881C93.8676 131.367 93.6512 131.833 93.3839 132.27L92.8564 132.311C93.0197 131.86 93.142 131.396 93.2218 130.923L94.0285 130.881Z" fill="black"/>
<path d="M94.3129 133.388C94.5787 133.521 94.8709 133.592 95.1678 133.596C95.4712 133.596 95.6194 133.492 95.6194 133.325C95.6194 133.158 95.4712 133.075 95.0989 132.947C94.5439 132.745 94.1716 132.44 94.1716 131.947C94.1716 131.363 94.6645 130.905 95.4953 130.905C95.7999 130.899 96.1026 130.956 96.3847 131.072L96.1985 131.787C95.9749 131.683 95.7313 131.63 95.485 131.631C95.2161 131.631 95.0713 131.728 95.0713 131.874C95.0713 132.02 95.2471 132.106 95.6608 132.263C96.2537 132.485 96.5157 132.801 96.5157 133.263C96.5157 133.832 96.0779 134.304 95.1161 134.304C94.7827 134.307 94.4526 134.238 94.1475 134.103L94.3129 133.388Z" fill="black"/>
<path d="M98.3847 134.273V132.936L97.3506 130.957H98.3606L98.6398 131.707C98.726 131.936 98.7915 132.103 98.8639 132.321C98.9259 132.12 98.9914 131.933 99.0742 131.707L99.3431 130.957H100.339L99.2603 132.901V134.273H98.3847Z" fill="black"/>
<path d="M101.845 133.623C102.269 133.623 102.517 133.21 102.517 132.61C102.517 132.009 102.266 131.606 101.828 131.606C101.39 131.606 101.138 132.04 101.138 132.616C101.138 133.193 101.397 133.623 101.828 133.623H101.845ZM101.8 134.318C100.766 134.318 100.218 133.543 100.218 132.623C100.202 132.399 100.233 132.173 100.308 131.961C100.384 131.749 100.503 131.555 100.657 131.392C100.811 131.229 100.997 131.099 101.203 131.012C101.41 130.926 101.632 130.883 101.855 130.888C102.914 130.888 103.451 131.679 103.451 132.564C103.451 133.63 102.817 134.3 101.807 134.3L101.8 134.318Z" fill="black"/>
<path d="M104.721 130.957V132.842C104.721 133.342 104.89 133.623 105.238 133.623C105.586 133.623 105.758 133.366 105.758 132.842V130.957H106.644V132.787C106.644 133.811 106.134 134.328 105.214 134.328C104.293 134.328 103.835 133.832 103.835 132.769V130.957H104.721Z" fill="black"/>
<path d="M107.803 131.707H106.965V130.957H109.543V131.707H108.688V134.273H107.803V131.707Z" fill="black"/>
<path d="M110.75 130.957V132.186H111.822V130.957H112.704V134.273H111.822V132.964H110.75V134.273H109.867V130.957H110.75Z" fill="black"/>
<path d="M112.904 134.852C113.076 134.367 113.205 133.867 113.29 133.359L114.176 133.311C114.001 133.832 113.77 134.333 113.487 134.804L112.904 134.852Z" fill="black"/>
<path d="M71.2666 135.974V136.72H72.1077V139.289H72.9902V136.72H73.8451V135.974H71.2666Z" fill="black"/>
<path d="M76.1239 135.974V137.203H75.0553V135.974H74.1729V139.289H75.0553V137.981H76.1239V139.289H77.0064V135.974H76.1239Z" fill="black"/>
<path d="M77.5332 135.974V139.289H79.7394V138.56H78.4157V137.949H79.5981V137.234H78.4157V136.703H79.6704V135.974H77.5332Z" fill="black"/>
<path d="M81.0352 135.974V139.289H81.9211V138.029H83.0759V137.31H81.9211V136.703H83.1517V135.974H81.0352Z" fill="black"/>
<path d="M84.4963 135.974V137.856C84.4963 138.359 84.6686 138.64 85.0134 138.64C85.3581 138.64 85.5373 138.383 85.5373 137.856V135.974H86.4198V137.803C86.4198 138.824 85.9131 139.341 84.9892 139.341C84.0654 139.341 83.6104 138.845 83.6104 137.783V135.974H84.4963Z" fill="black"/>
<path d="M86.7412 135.974V136.72H87.5823V139.289H88.4648V136.72H89.3197V135.974H86.7412Z" fill="black"/>
<path d="M90.525 135.974V137.856C90.525 138.359 90.6939 138.64 91.0421 138.64C91.3902 138.64 91.5626 138.383 91.5626 137.856V135.974H92.4589V137.803C92.4589 138.824 91.9487 139.341 91.0283 139.341C90.1079 139.341 89.6494 138.845 89.6494 137.783V135.974H90.525Z" fill="black"/>
<path d="M93.838 137.404H94.0689C94.4136 137.404 94.5894 137.241 94.5894 136.998C94.5894 136.755 94.4274 136.609 94.1379 136.609C94.0376 136.607 93.9373 136.613 93.838 136.626V137.404ZM92.9658 136.015C93.3175 135.965 93.6723 135.941 94.0275 135.942C94.4169 135.906 94.8075 135.997 95.141 136.203C95.2484 136.288 95.334 136.397 95.3904 136.522C95.4468 136.647 95.4724 136.784 95.465 136.922C95.459 137.096 95.4027 137.264 95.3029 137.407C95.203 137.549 95.0641 137.659 94.9031 137.723C95.0124 137.785 95.1068 137.87 95.1795 137.973C95.2522 138.075 95.3014 138.193 95.3237 138.317C95.4202 138.664 95.5271 139.14 95.5926 139.268H94.6929C94.5914 139.021 94.5141 138.764 94.4619 138.501C94.3757 138.105 94.2516 138.022 93.9793 138.022H93.838V139.268H92.9658V136.015Z" fill="black"/>
<path d="M95.8994 135.974V139.289H98.1091V138.56H96.7853V137.949H97.9677V137.234H96.7853V136.703H98.0401V135.974H95.8994Z" fill="black"/>
<path d="M100.894 138.64C101.318 138.64 101.566 138.227 101.566 137.626C101.566 137.026 101.314 136.623 100.877 136.623C100.439 136.623 100.187 137.057 100.187 137.63C100.187 138.203 100.446 138.64 100.877 138.64H100.894ZM100.849 139.334C99.8148 139.334 99.2667 138.564 99.2667 137.644C99.2509 137.419 99.2817 137.193 99.3572 136.981C99.4328 136.769 99.5513 136.575 99.7054 136.412C99.8595 136.249 100.046 136.12 100.252 136.033C100.458 135.946 100.681 135.903 100.904 135.908C101.962 135.908 102.5 136.699 102.5 137.585C102.5 138.654 101.866 139.321 100.852 139.321L100.849 139.334Z" fill="black"/>
<path d="M102.891 135.974V139.289H103.773V138.029H104.931V137.31H103.773V136.703H105.004V135.974H102.891Z" fill="black"/>
<path d="M106.416 138.404C106.683 138.534 106.975 138.604 107.271 138.609C107.575 138.609 107.723 138.505 107.723 138.338C107.723 138.171 107.575 138.088 107.202 137.959C106.647 137.758 106.275 137.453 106.275 136.963C106.275 136.376 106.768 135.922 107.599 135.922C107.904 135.914 108.206 135.971 108.488 136.088L108.302 136.8C108.078 136.698 107.835 136.644 107.588 136.644C107.32 136.644 107.175 136.741 107.175 136.89C107.175 137.039 107.351 137.123 107.764 137.279C108.357 137.498 108.619 137.814 108.619 138.275C108.619 138.848 108.181 139.334 107.22 139.334C106.886 139.337 106.556 139.268 106.251 139.133L106.416 138.404Z" fill="black"/>
<path d="M111.481 139.213C111.218 139.316 110.936 139.363 110.654 139.352C109.423 139.352 108.882 138.578 108.882 137.699C108.882 136.533 109.733 135.939 110.712 135.939C110.993 135.93 111.272 135.978 111.533 136.081L111.364 136.776C111.17 136.696 110.963 136.656 110.754 136.658C110.507 136.675 110.276 136.786 110.109 136.968C109.941 137.151 109.849 137.391 109.851 137.64C109.853 137.888 109.949 138.127 110.12 138.307C110.292 138.486 110.524 138.593 110.771 138.605C110.97 138.608 111.168 138.576 111.357 138.512L111.481 139.213Z" fill="black"/>
<path d="M112.759 135.974H111.877V139.289H112.759V135.974Z" fill="black"/>
<path d="M113.291 135.974V139.289H115.497V138.56H114.173V137.949H115.356V137.234H114.173V136.703H115.428V135.974H113.291Z" fill="black"/>
<path d="M115.9 139.289V135.974H116.935L117.455 136.991C117.654 137.367 117.828 137.755 117.976 138.154C117.927 137.693 117.904 137.229 117.907 136.765V135.977H118.713V139.293H117.786L117.248 138.171C117.043 137.784 116.859 137.385 116.697 136.977H116.676C116.7 137.425 116.71 137.922 116.71 138.456V139.276L115.9 139.289Z" fill="black"/>
<path d="M121.726 139.213C121.463 139.316 121.183 139.363 120.902 139.352C119.671 139.352 119.13 138.578 119.13 137.699C119.13 136.533 119.978 135.939 120.96 135.939C121.241 135.93 121.52 135.978 121.781 136.081L121.608 136.776C121.415 136.696 121.207 136.656 120.998 136.658C120.752 136.675 120.521 136.786 120.354 136.969C120.186 137.152 120.094 137.393 120.097 137.641C120.099 137.89 120.196 138.129 120.368 138.308C120.539 138.487 120.772 138.593 121.019 138.605C121.218 138.607 121.416 138.576 121.605 138.512L121.726 139.213Z" fill="black"/>
<path d="M122.126 135.974V139.289H124.332V138.56H123.012V137.949H124.191V137.234H123.012V136.703H124.263V135.974H122.126Z" fill="black"/>
</g>
<defs>
<clipPath id="clip0_463_4272">
<rect width="124" height="140" fill="white"/>
</clipPath>
</defs>
</svg>
