<svg width="32" height="32" viewBox="0 0 32 32" fill="none" xmlns="http://www.w3.org/2000/svg">
<path fill-rule="evenodd" clip-rule="evenodd" d="M14.353 2.36254L14.8985 4.39804C14.9225 4.48797 15.0267 4.49372 15.0743 4.44054C16.0002 3.4066 17.7036 3.83335 18.0495 5.15185C18.4049 6.50647 17.1168 7.6771 15.8291 7.2551C15.7484 7.22866 15.6747 7.29491 15.6973 7.37904L16.2425 9.41372L18.2778 8.86835C19.0716 8.6556 19.79 9.41097 19.5333 10.194C19.3457 10.7664 19.8398 11.3912 20.525 11.215C21.1147 11.0414 21.3105 10.2712 20.8354 9.84572C20.2111 9.28666 20.4718 8.28041 21.2588 8.06954L23.2937 7.52429L21.4953 0.813162C21.4446 0.623724 21.2515 0.514099 21.0636 0.564474L14.353 2.36254ZM17.787 22.4963C17.4599 22.3074 17.061 22.2424 16.6701 22.3472L14.6868 22.8786C13.6987 23.1434 12.7373 23.0163 11.85 22.5041L9.20435 20.9777C8.52629 20.5862 7.71204 20.8918 6.64729 21.2915C6.14822 21.4788 5.60116 21.6842 4.98735 21.8555L7.07422 29.6439C8.99897 29.36 10.3457 29.7441 12.0475 30.2294C12.3765 30.3232 12.719 30.4209 13.0621 30.5128C13.7419 30.695 14.3736 30.6124 14.9826 30.2608L25.9263 23.9432C26.8239 23.425 26.674 22.0462 25.6396 21.769C25.3427 21.6894 25.0207 21.7219 24.7393 21.8847L18.9817 25.2089C18.6686 25.6307 18.218 25.9537 17.6755 26.099L14.7753 26.8761C14.1402 27.0463 13.488 27.0581 12.8597 26.8894C12.61 26.8227 12.4615 26.5661 12.5283 26.3163C12.595 26.0665 12.8517 25.9181 13.1014 25.9848C13.5826 26.114 14.0451 26.1025 14.5337 25.9715L17.4338 25.1945C18.6735 24.8624 18.9403 23.1622 17.787 22.4963ZM3.85397 21.2482L6.36866 30.6332C6.41829 30.8184 6.30741 31.0105 6.12222 31.0602L4.71904 31.4362C4.53385 31.4858 4.34179 31.3748 4.29216 31.1897L1.77747 21.8047C1.72785 21.6195 1.83872 21.4274 2.02391 21.3778L3.4271 21.0018C3.61229 20.9521 3.80435 21.063 3.85397 21.2482ZM24.884 17.4139C24.3812 17.1237 23.751 17.2992 23.4661 17.7926C23.3643 17.9668 23.3186 18.1685 23.3297 18.3696C23.3645 19.0042 22.6757 19.4272 22.1252 19.1093C21.5687 18.788 21.6 17.9803 22.1617 17.696C22.9002 17.3222 22.9248 16.2821 22.2131 15.8708L20.3868 14.8163L21.426 13.0164C21.4597 12.962 21.5075 12.9097 21.5822 12.9528C21.6571 12.9962 21.7631 13.4033 22.3036 13.7153C23.1304 14.1985 24.2009 13.9072 24.6786 13.0799C25.3913 11.8603 24.4148 10.4001 23.0791 10.4733C22.996 10.4778 22.9431 10.3906 22.984 10.3197L24.0377 8.49279L30.0176 11.9453C30.2446 12.0837 30.2879 12.2601 30.1628 12.4892L26.7107 18.4685L24.884 17.4139ZM15.5803 10.5603L16.1255 12.595C16.1481 12.6793 16.0742 12.7454 15.9937 12.719C14.6907 12.2916 13.4118 13.4931 13.7733 14.8228C14.138 16.1638 15.8345 16.5542 16.7484 15.5335C16.796 15.4803 16.9002 15.4862 16.9242 15.576L17.4697 17.6115L10.7592 19.4096C10.5712 19.46 10.3782 19.3503 10.3274 19.1609L8.52916 12.4498L10.564 11.9045C11.1213 11.7552 11.4478 11.1831 11.3001 10.632C11.1675 10.1372 10.8647 10.1685 10.7494 9.73804C10.5625 9.04016 11.3152 8.47879 11.9274 8.83229C12.256 9.02435 12.4082 9.41766 12.2894 9.7801C12.0327 10.5632 12.751 11.3185 13.5449 11.1058L15.5803 10.5603ZM8.28691 11.5453L6.48885 4.83485C6.43854 4.64697 6.54816 4.45391 6.7376 4.4031L13.4487 2.60485L13.994 4.63972C14.1433 5.19697 14.7152 5.52347 15.2665 5.37579C15.6618 5.26991 15.7227 5.05385 15.9465 4.91654C16.408 4.63341 17.0143 4.8866 17.1394 5.37354C17.315 6.05672 16.6936 6.55379 16.1184 6.36516C15.3371 6.10891 14.58 6.82647 14.7927 7.62066L15.3381 9.65597L13.3035 10.2012C13.2193 10.2237 13.1532 10.15 13.1795 10.0693C13.6144 8.74191 12.38 7.49947 11.0757 7.84897C9.74591 8.20529 9.33772 9.90422 10.365 10.824C10.4183 10.8717 10.4123 10.9758 10.3225 10.9998L8.28691 11.5453Z" fill="#800000"/>
</svg>
