<svg width="32" height="32" viewBox="0 0 32 32" fill="none" xmlns="http://www.w3.org/2000/svg">
<g clip-path="url(#clip0_447_24977)">
<path d="M26.0211 16.3665C26.8365 14.7729 27.25 13.0515 27.25 11.25C27.25 5.04675 22.2033 0 16 0C9.79675 0 4.75 5.04675 4.75 11.25C4.75 13.0515 5.1635 14.7729 5.97894 16.3665C6.69581 17.7672 7.71638 19.0202 8.94456 20.0113L9.301 22.625H7.5625V24.5H9.4375V26.375H7.5625V28.25H9.79556L11.6706 32H20.3294L22.2044 28.25H24.4375V26.375H22.5625V24.5H24.4375V22.625H22.699L23.0554 20.0114C24.2836 19.0202 25.3042 17.7672 26.0211 16.3665ZM19.1706 30.125H12.8294L11.8919 28.25H20.1081L19.1706 30.125ZM20.6875 26.375H11.3125V24.5H20.6875V26.375ZM13.6546 12.9193L16 14.1915L18.3454 12.9193L17.0219 22.625H14.9781L13.6546 12.9193ZM21.6159 18.7561L21.3022 18.9912L20.8067 22.625H18.9142L20.5933 10.3125H19.2189L16 12.0585L12.7811 10.3125H11.4067L13.0857 22.625H11.1934L10.6979 18.9911L10.3842 18.756C7.99519 16.9656 6.625 14.2298 6.625 11.25C6.625 6.08063 10.8306 1.875 16 1.875C21.1694 1.875 25.375 6.08063 25.375 11.25C25.375 14.2298 24.0048 16.9656 21.6159 18.7561Z" fill="#800000"/>
<path d="M2.875 10.3125H0V12.1875H2.875V10.3125Z" fill="#800000"/>
<path d="M4.16157 17L1.67188 18.4375L2.60934 20.0612L5.09904 18.6237L4.16157 17Z" fill="#800000"/>
<path d="M27.8359 17.0013L26.8984 18.625L29.3881 20.0625L30.3256 18.4388L27.8359 17.0013Z" fill="#800000"/>
<path d="M32 10.3125H29.125V12.1875H32V10.3125Z" fill="#800000"/>
<path d="M29.3881 2.43753L26.8984 3.875L27.8359 5.4987L30.3256 4.06123L29.3881 2.43753Z" fill="#800000"/>
<path d="M2.60934 2.43783L1.67188 4.06152L4.16157 5.49899L5.09904 3.8753L2.60934 2.43783Z" fill="#800000"/>
</g>
<defs>
<clipPath id="clip0_447_24977">
<rect width="32" height="32" fill="white"/>
</clipPath>
</defs>
</svg>
