<svg width="32" height="32" viewBox="0 0 32 32" fill="none" xmlns="http://www.w3.org/2000/svg">
<g clip-path="url(#clip0_447_24936)">
<path d="M26.6289 6.53955H32.0002V29.9994H26.6289V6.53955Z" fill="#800000"/>
<path d="M18.5703 12.0601H23.9417V30H18.5703V12.0601Z" fill="#800000"/>
<path d="M10.5156 17.5801H15.887V30H10.5156V17.5801Z" fill="#800000"/>
<path d="M2.45703 23.0996H7.82837V29.9996H2.45703V23.0996Z" fill="#800000"/>
<path d="M12.8442 14.1232L20.955 5.78808L22.9759 7.86497V2H17.2689L19.5315 4.32529L12.1325 11.9291L8.81572 8.52737C8.41958 8.12027 7.78173 8.12027 7.39231 8.52737L0 16.1173L1.43012 17.5801L8.11073 10.7147L11.4275 14.1232C11.7968 14.5096 12.4615 14.5096 12.8442 14.1232Z" fill="#800000"/>
</g>
<defs>
<clipPath id="clip0_447_24936">
<rect width="32" height="32" fill="white"/>
</clipPath>
</defs>
</svg>
