<svg width="33" height="33" viewBox="0 0 33 33" fill="none" xmlns="http://www.w3.org/2000/svg">
<path d="M18.7518 11.5749L17.8696 11.5609L17.801 9.09161C17.7953 8.88433 17.6587 8.70437 17.4617 8.6425C17.2642 8.58011 17.0497 8.65126 16.927 8.81729L13.8678 12.9727C13.7595 13.1197 13.743 13.3151 13.8255 13.4785C13.908 13.6415 14.0751 13.7446 14.2576 13.7446H15.3925L15.1625 15.9602C15.1404 16.1747 15.2626 16.3784 15.4626 16.4594C15.5219 16.4836 15.5833 16.495 15.6441 16.495C15.7901 16.495 15.9313 16.429 16.0252 16.3093L19.1251 12.3576C19.2391 12.2127 19.2602 12.0162 19.1813 11.8502C19.1024 11.6847 18.9359 11.578 18.7518 11.5749ZM16.3 14.3907L16.4119 13.311C16.4263 13.1743 16.3815 13.0387 16.2897 12.9361C16.1979 12.8345 16.067 12.7763 15.9298 12.7763H15.2157L16.8713 10.5266L16.9141 12.0518C16.9213 12.3117 17.1317 12.5185 17.3906 12.5231L17.7603 12.5288L16.3 14.3907Z" fill="#800000"/>
<path d="M21.3767 18.0395L21.98 17.4357C22.1084 17.3074 22.1543 17.1181 22.0986 16.9459L21.8413 16.1426C21.8181 16.0688 21.7774 16.0023 21.7227 15.9477L21.4216 15.6465C21.7676 15.0948 22.0197 14.4874 22.1651 13.8552H22.59C22.6673 13.8552 22.7431 13.8367 22.8117 13.8011L23.5619 13.4149C23.7233 13.3319 23.8244 13.1659 23.8244 12.9844V12.1315C23.8244 11.95 23.7228 11.784 23.5614 11.701L22.8117 11.3148C22.7431 11.2792 22.6673 11.2606 22.59 11.2606H22.1651C22.0202 10.6279 21.7676 10.0205 21.4216 9.46882L21.7227 9.1677C21.7774 9.11356 21.8181 9.04653 21.8413 8.97279L22.0986 8.16945C22.1538 7.99671 22.1084 7.80748 21.98 7.67961L21.3767 7.07581C21.2483 6.94742 21.0591 6.90101 20.8864 6.95721L20.083 7.21451C20.0098 7.23823 19.9428 7.27896 19.8886 7.33311L19.587 7.63423C19.0353 7.28825 18.4279 7.03611 17.7957 6.89121V6.46634C17.7957 6.389 17.7771 6.3132 17.7421 6.24514L17.3559 5.4949C17.2729 5.333 17.1068 5.23193 16.9253 5.23193H16.072C15.8905 5.23193 15.7244 5.333 15.6414 5.4949L15.2552 6.24514C15.2202 6.3132 15.2016 6.38951 15.2016 6.46634V6.89121C14.5694 7.03611 13.962 7.28876 13.4103 7.63423L13.1087 7.33311C13.0545 7.27896 12.9875 7.23823 12.9138 7.21451L12.1104 6.95721C11.9377 6.90101 11.7485 6.94793 11.6201 7.07581L11.0168 7.67961C10.8884 7.808 10.8425 7.99723 10.8982 8.16945L11.1555 8.97279C11.1787 9.04653 11.2194 9.11304 11.2741 9.1677L11.5752 9.46882C11.2292 10.0205 10.9771 10.6279 10.8317 11.2606H10.4068C10.3295 11.2606 10.2537 11.2792 10.1851 11.3148L9.43484 11.701C9.27345 11.784 9.17188 11.95 9.17188 12.1315V12.9844C9.17188 13.1653 9.27294 13.3319 9.43433 13.4149L10.1846 13.8011C10.2531 13.8367 10.3295 13.8552 10.4063 13.8552H10.8312C10.976 14.4874 11.2287 15.0948 11.5747 15.6465L11.2736 15.9477C11.2189 16.0018 11.1782 16.0688 11.155 16.1426L10.8977 16.9459C10.8425 17.1186 10.8879 17.3079 11.0163 17.4357L11.6195 18.0395C11.7479 18.1679 11.9372 18.2138 12.1099 18.1581L12.9132 17.9008C12.9865 17.8771 13.0535 17.8364 13.1082 17.7822L13.4098 17.4806C13.9595 17.8256 14.5674 18.0772 15.2011 18.2221V18.649C15.2011 18.7264 15.2196 18.8022 15.2547 18.8707L15.6409 19.6204C15.7239 19.7818 15.89 19.8829 16.0715 19.8829H16.9248C17.1063 19.8829 17.2723 19.7818 17.3554 19.6204L17.7416 18.8707C17.7766 18.8022 17.7952 18.7258 17.7952 18.649V18.2221C18.4289 18.0767 19.0368 17.825 19.5865 17.4806L19.8881 17.7822C19.9423 17.8364 20.0093 17.8771 20.0825 17.9008L20.8858 18.1581C21.0591 18.2138 21.2483 18.1679 21.3767 18.0395ZM19.9892 16.5128C19.8206 16.3437 19.5535 16.323 19.3601 16.4643C18.7372 16.9217 18.0035 17.2254 17.2378 17.3429C17.0016 17.3795 16.8268 17.5827 16.8268 17.8214V18.5314L16.6299 18.914H16.3674L16.1705 18.5314V17.8214C16.1705 17.5827 15.9957 17.379 15.7595 17.3429C14.9943 17.2254 14.2601 16.9217 13.6372 16.4643C13.4443 16.323 13.1762 16.3437 13.0081 16.5128L12.5064 17.0145L12.0965 17.1454L11.9109 16.9598L12.0424 16.5499L12.5435 16.0487C12.7127 15.8796 12.7328 15.6125 12.5915 15.4197C12.1326 14.7937 11.8279 14.0599 11.7108 13.2979C11.6747 13.0612 11.471 12.8869 11.2323 12.8869H10.5249L10.1418 12.6894V12.4275L10.5249 12.23H11.2328C11.4721 12.23 11.6752 12.0552 11.7113 11.819C11.8284 11.0564 12.1326 10.3222 12.592 9.69725C12.7333 9.5044 12.7132 9.23731 12.5441 9.06818L12.0429 8.56648L11.9114 8.15656L12.097 7.97093L12.5069 8.1019L13.0086 8.60361C13.1772 8.77273 13.4449 8.79336 13.6377 8.65207C14.2642 8.19265 14.9979 7.88792 15.76 7.77139C15.9967 7.73529 16.171 7.53214 16.171 7.29289V6.58442L16.3679 6.20131H16.6304L16.8274 6.58442V7.29186C16.8274 7.53111 17.0022 7.73478 17.2383 7.77036C18.0004 7.8874 18.7341 8.19162 19.3606 8.65104C19.5535 8.79232 19.8211 8.7717 19.9897 8.60257L20.4914 8.10087L20.9013 7.9699L21.0869 8.15553L20.9555 8.56545L20.4543 9.06715C20.2851 9.23628 20.265 9.50337 20.4063 9.69621C20.8652 10.3217 21.17 11.0559 21.287 11.818C21.3231 12.0547 21.5268 12.229 21.7655 12.229H22.4735L22.8566 12.4264V12.6884L22.4735 12.8859H21.766C21.5268 12.8859 21.3236 13.0607 21.2875 13.2968C21.1705 14.0589 20.8662 14.7932 20.4068 15.4186C20.2655 15.6115 20.2857 15.8791 20.4548 16.0477L20.956 16.5489L21.0875 16.9588L20.9018 17.1444L20.4919 17.0134L19.9892 16.5128Z" fill="#800000"/>
<path d="M29.1864 10.4976C29.3824 10.543 29.5855 10.5698 29.7954 10.5698C31.2783 10.5698 32.4844 9.36374 32.4844 7.88081C32.4844 7.03466 32.091 6.27979 31.4779 5.78634C31.4856 5.26349 31.3701 4.80613 31.1185 4.43437C30.0713 2.86377 26.9625 2.94163 22.5756 4.63546C21.1494 3.59132 19.4602 2.89523 17.6462 2.69981C15.0743 2.42188 12.5931 3.06796 10.5394 4.5246C6.83255 3.06023 4.23019 2.99938 3.20048 4.36682C2.06147 5.88585 3.12211 8.69395 6.17925 12.2822C6.16327 12.5168 6.15192 12.7519 6.15192 12.9881C6.15192 13.7419 6.23494 14.4803 6.38963 15.197C5.56463 16.0112 4.83914 16.8083 4.22142 17.5761C3.90741 17.4472 3.56452 17.375 3.20461 17.375C1.72219 17.3755 0.515625 18.5816 0.515625 20.0645C0.515625 21.0617 1.06219 21.9316 1.87069 22.3962C1.86398 22.8948 1.98052 23.3418 2.23266 23.7229C2.739 24.4834 3.70838 24.8609 5.0655 24.8609C6.70673 24.8609 8.91928 24.3019 11.5557 23.2078C11.5691 23.2598 11.5845 23.3109 11.5959 23.3635C11.6402 23.5744 11.682 23.7853 11.7243 23.9967C11.8377 24.5675 11.9548 25.1579 12.1198 25.7369L12.4627 26.9383C12.5085 27.1002 12.6349 27.2204 12.7906 27.2668V28.6512C12.7906 29.5943 13.5578 30.3615 14.5009 30.3615H18.4996C19.4427 30.3615 20.2099 29.5943 20.2099 28.6512V27.3214C20.4033 27.2982 20.5683 27.1662 20.6209 26.9744L20.9957 25.609C21.1437 25.0707 21.2525 24.5262 21.3546 23.9869C22.1054 24.3561 22.8355 24.6835 23.5372 24.966C23.6259 26.3696 24.7928 27.4844 26.2175 27.4844C27.1992 27.4844 28.0572 26.9538 28.527 26.1664C29.6887 26.1649 30.5229 25.8323 31.0076 25.178C32.3168 23.4259 30.6374 19.8526 26.5232 15.5935C26.7321 14.7799 26.8383 13.9342 26.844 13.0721C27.7386 12.1935 28.5233 11.3293 29.1864 10.4976ZM29.7954 9.60093C28.8466 9.60093 28.0748 8.82904 28.0748 7.88029C28.0748 6.93154 28.8466 6.16016 29.7954 6.16016C30.7441 6.16016 31.5155 6.93206 31.5155 7.88029C31.5155 8.82852 30.7441 9.60093 29.7954 9.60093ZM30.3146 4.97423C30.3744 5.0624 30.4162 5.16552 30.4497 5.27535C30.2399 5.22276 30.0212 5.19131 29.7954 5.19131C28.3125 5.19131 27.1064 6.39735 27.1064 7.88029C27.1064 8.79656 27.5679 9.60609 28.2691 10.0918C27.8221 10.6394 27.3261 11.1999 26.7728 11.7727C26.7599 11.6593 26.7506 11.5459 26.7341 11.4319C26.3856 9.0487 25.1718 6.91401 23.4419 5.34238C26.9471 4.06827 29.6067 3.91256 30.3146 4.97423ZM3.97495 4.94896C4.64527 4.05641 6.79078 4.17295 9.65714 5.22379C9.63445 5.2439 9.61125 5.26195 9.58856 5.28206C7.91227 6.78768 6.78717 8.79295 6.35353 10.9715C4.14305 8.20616 3.23194 5.93948 3.97495 4.94896ZM3.20461 18.3444C4.15336 18.3444 4.92473 19.1163 4.92473 20.065C4.92473 21.0138 4.15336 21.7851 3.20461 21.7851C2.25586 21.7851 1.48448 21.0133 1.48448 20.065C1.48448 19.1168 2.25586 18.3444 3.20461 18.3444ZM3.03961 23.1876C2.94886 23.051 2.88853 22.8984 2.85708 22.7287C2.97103 22.7437 3.08653 22.754 3.20461 22.754C4.68755 22.754 5.89359 21.548 5.89359 20.065C5.89359 19.2921 5.56411 18.596 5.03972 18.1051C5.52183 17.5116 6.06942 16.8996 6.68353 16.2731C7.33012 18.2181 8.54803 19.9408 10.2398 21.2267C10.6306 21.5237 10.9503 21.895 11.1906 22.3126C7.01766 24.042 3.84192 24.3927 3.03961 23.1876ZM18.4991 29.3937H14.5004C14.0915 29.3937 13.7589 29.0611 13.7589 28.6522V27.2956L19.2405 27.3266V28.6522C19.2411 29.0611 18.908 29.3937 18.4991 29.3937ZM20.0614 25.3533L19.785 26.3603L13.2944 26.3232L13.051 25.4719C12.8968 24.931 12.7885 24.3865 12.6741 23.809C12.6313 23.594 12.589 23.3789 12.5436 23.1644C12.4869 22.8943 12.4059 22.6313 12.3023 22.3781C12.3007 22.3745 12.3018 22.3709 12.3002 22.3678C12.2982 22.3637 12.2946 22.3611 12.2925 22.3565C11.9831 21.6098 11.4799 20.9519 10.8261 20.4554C9.07655 19.125 7.88236 17.2806 7.38375 15.2084C7.37911 15.1924 7.37756 15.1764 7.37137 15.1614C7.20637 14.4591 7.12078 13.7311 7.12078 12.9886C7.12078 10.3274 8.25619 7.78129 10.2357 6.00341C12.2415 4.20234 14.8356 3.37012 17.5426 3.66299C21.7083 4.1121 25.1707 7.43891 25.7756 11.5722C26.2778 15.0057 24.9516 18.3098 22.2281 20.411C21.3278 21.1061 20.7194 22.1017 20.5152 23.2155L20.5059 23.2665C20.379 23.9585 20.2481 24.6742 20.0614 25.3533ZM26.218 26.5165C25.2692 26.5165 24.4973 25.7446 24.4973 24.7964C24.4973 23.8482 25.2692 23.0758 26.218 23.0758C27.1667 23.0758 27.9381 23.8476 27.9381 24.7964C27.9381 25.7451 27.1662 26.5165 26.218 26.5165ZM30.2301 24.601C29.9418 24.9903 29.4051 25.1398 28.8755 25.1826C28.8941 25.0563 28.9065 24.9279 28.9065 24.7964C28.9065 23.3135 27.6999 22.1074 26.2175 22.1074C25.0228 22.1074 24.0085 22.8912 23.6589 23.9714C22.984 23.6919 22.2817 23.3697 21.5614 23.0087C21.7774 22.2858 22.2136 21.6454 22.819 21.1783C24.3829 19.9717 25.5245 18.4042 26.186 16.6464C30.0228 20.723 31.0056 23.5635 30.2301 24.601Z" fill="#800000"/>
</svg>
