<svg width="32" height="32" viewBox="0 0 32 32" fill="none" xmlns="http://www.w3.org/2000/svg">
<g clip-path="url(#clip0_463_3715)">
<path d="M16.0535 11.1636C16.4939 11.1636 16.8506 10.8066 16.8506 10.3665C16.8506 9.92627 16.4939 9.56934 16.0535 9.56934C12.5317 9.56934 9.67676 12.4243 9.67676 15.9463C9.67676 19.468 12.5317 22.323 16.0535 22.323C19.5754 22.323 22.4304 19.468 22.4304 15.9463C22.4304 15.5059 22.0735 15.1492 21.6333 15.1492C21.1931 15.1492 20.8362 15.5059 20.8362 15.9463C20.8362 18.5876 18.6951 20.729 16.0535 20.729C13.4121 20.729 11.2707 18.5876 11.2707 15.9463C11.2707 13.3047 13.4121 11.1636 16.0535 11.1636Z" fill="#800000"/>
<path d="M31.2624 11.2122C31.124 10.7939 30.6728 10.5671 30.2543 10.7056C29.8457 10.8408 29.6181 11.2759 29.7399 11.6887C32.1237 19.2798 27.9025 27.3659 20.3115 29.7497C12.7207 32.1335 4.63451 27.9123 2.25072 20.3213C-0.133309 12.7302 4.08812 4.64405 11.6789 2.26026C14.489 1.37794 17.5017 1.37794 20.3115 2.26026C20.7334 2.38746 21.1784 2.14869 21.3056 1.72682C21.4309 1.31129 21.2011 0.872082 20.7883 0.737805C12.3594 -1.90672 3.38231 2.78248 0.737784 11.2117C-1.90674 19.6406 2.7827 28.6176 11.2116 31.2622C19.6408 33.9067 28.6176 29.2175 31.2622 20.7883C32.2402 17.6711 32.2402 14.3293 31.2624 11.2122Z" fill="#800000"/>
<path d="M17.572 5.69482C17.5762 5.24097 17.2275 4.86157 16.7749 4.82764C16.5368 4.80737 16.2986 4.78711 16.0542 4.78711C9.89086 4.78711 4.89453 9.78344 4.89453 15.9468C4.89453 22.1098 9.89086 27.1062 16.0542 27.1062C22.2173 27.1062 27.2136 22.1098 27.2136 15.9468C27.2136 15.6584 27.196 15.3703 27.1606 15.0842C27.0969 14.6467 26.6906 14.3437 26.2531 14.4075C25.8156 14.4709 25.5127 14.8774 25.5761 15.3149C25.5786 15.3315 25.5815 15.3479 25.5849 15.3645C25.6023 15.5576 25.6194 15.749 25.6194 15.9463C25.6196 21.2292 21.3371 25.5117 16.0544 25.5122C10.7715 25.5124 6.48901 21.2297 6.48877 15.947C6.48852 10.6643 10.7707 6.38159 16.0537 6.38135H16.0539C16.2517 6.38135 16.4433 6.39844 16.636 6.41553L16.7854 6.42798C17.2019 6.4458 17.5539 6.12256 17.5715 5.70605C17.5718 5.70215 17.5718 5.69849 17.572 5.69482Z" fill="#800000"/>
<path d="M20.8366 7.17822V10.0366L15.4904 15.3828C15.1738 15.6887 15.165 16.1933 15.4709 16.51C15.7768 16.8266 16.2814 16.8354 16.5981 16.5295C16.6047 16.5232 16.6113 16.5166 16.6176 16.51L21.9638 11.1638H24.8222C25.0336 11.1638 25.2363 11.0798 25.3859 10.9302L30.1684 6.14745C30.4797 5.83618 30.4797 5.33154 30.1684 5.02026C30.019 4.87085 29.8163 4.78686 29.6049 4.78686H27.2135V2.39551C27.2135 1.95532 26.8566 1.59839 26.4162 1.59863C26.205 1.59863 26.0024 1.68262 25.853 1.83203L21.0702 6.61474C20.9206 6.76415 20.8366 6.96679 20.8366 7.17822ZM22.4308 7.50829L25.6193 4.31982V5.58398C25.6193 6.02416 25.9762 6.3811 26.4164 6.3811H27.6806L24.4921 9.56957H22.4308V7.50829Z" fill="#800000"/>
</g>
<defs>
<clipPath id="clip0_463_3715">
<rect width="32" height="32" fill="white"/>
</clipPath>
</defs>
</svg>
