<svg width="32" height="32" viewBox="0 0 32 32" fill="none" xmlns="http://www.w3.org/2000/svg">
<path d="M1.50293 18.0027C1.50293 18.262 1.71315 18.4723 1.9726 18.4723C9.2185 18.4723 16.1701 16.1915 21.5469 12.0499C23.8151 10.3028 25.71 8.28243 27.0267 6.20738C27.9284 4.78641 28.5317 3.38718 28.8126 2.08307L29.6067 3.68314C29.7281 3.92774 30.0418 4.01685 30.2744 3.87376C30.4782 3.74826 30.5544 3.47968 30.4481 3.26551L28.9562 0.259636C28.8102 -0.0347513 28.3953 -0.0889196 28.176 0.154431L25.727 2.10499C25.5268 2.26443 25.4928 2.56476 25.6523 2.76497C25.8117 2.96517 26.1121 2.99917 26.3123 2.83974L27.9649 1.52348C27.4571 4.61715 24.8259 8.33854 20.9737 11.3057C15.7603 15.3214 9.01228 17.533 1.97266 17.533C1.71315 17.533 1.50293 17.7433 1.50293 18.0027Z" fill="#800000"/>
<path d="M2.03413 11.0879C3.7605 12.6416 5.81808 13.4628 7.98438 13.4628C10.1507 13.4628 12.2082 12.6416 13.9346 11.0879C15.2304 9.92158 15.8825 8.76125 15.9097 8.7124C15.9884 8.57056 15.9884 8.3981 15.9097 8.25626C15.8825 8.20742 15.2304 7.04709 13.9346 5.88081C12.2083 4.32709 10.1507 3.50586 7.98438 3.50586C5.81808 3.50586 3.76056 4.32715 2.03413 5.88087C0.738348 7.04709 0.0862622 8.20748 0.0590842 8.25626C-0.0196947 8.3981 -0.0196947 8.57056 0.0590842 8.7124C0.0862622 8.76125 0.738348 9.92164 2.03413 11.0879ZM2.68609 6.55795C4.25403 5.15602 6.03657 4.44519 7.98438 4.44519C9.93218 4.44519 11.7147 5.15602 13.2827 6.55795C14.1448 7.32876 14.7034 8.10973 14.9474 8.48433C14.7033 8.85919 14.1447 9.64003 13.2827 10.4107C11.7147 11.8126 9.93212 12.5235 7.98438 12.5235C6.03663 12.5235 4.25403 11.8126 2.68609 10.4107C1.82422 9.64009 1.26557 8.85925 1.0214 8.48433C1.26557 8.10948 1.82422 7.32858 2.68609 6.55795Z" fill="#800000"/>
<path d="M7.98433 11.9599C9.90076 11.9599 11.4599 10.4008 11.4599 8.48433C11.4599 6.5679 9.90076 5.00879 7.98433 5.00879C6.0679 5.00879 4.50879 6.5679 4.50879 8.48433C4.50879 10.4008 6.0679 11.9599 7.98433 11.9599ZM7.98433 5.94812C9.38281 5.94812 10.5205 7.08584 10.5205 8.48433C10.5205 9.88281 9.38281 11.0205 7.98433 11.0205C6.58585 11.0205 5.44812 9.88281 5.44812 8.48433C5.44812 7.08584 6.58585 5.94812 7.98433 5.94812Z" fill="#800000"/>
<path d="M7.98432 8.95398C8.24371 8.95398 8.45398 8.74371 8.45398 8.48432C8.45398 8.22493 8.24371 8.01465 7.98432 8.01465C7.72493 8.01465 7.51465 8.22493 7.51465 8.48432C7.51465 8.74371 7.72493 8.95398 7.98432 8.95398Z" fill="#800000"/>
<path d="M31.5303 31.0596H28.9941V26.258C28.9941 25.9986 28.7839 25.7883 28.5245 25.7883C28.265 25.7883 28.0548 25.9986 28.0548 26.258V31.0596H24.9863V12.4608H28.0548V24.092C28.0548 24.3514 28.265 24.5616 28.5245 24.5616C28.7839 24.5616 28.9941 24.3514 28.9941 24.092V11.9912C28.9941 11.7318 28.7839 11.5215 28.5245 11.5215H24.5166C24.2572 11.5215 24.047 11.7318 24.047 11.9912V31.0596H18.4736V18.0029C18.4736 17.7435 18.2634 17.5332 18.0039 17.5332H13.9961C13.7366 17.5332 13.5264 17.7435 13.5264 18.0029V31.0596H7.95303V20.0068C7.95303 19.7474 7.74281 19.5371 7.48337 19.5371H3.47554C3.21609 19.5371 3.00587 19.7474 3.00587 20.0068V31.0596H0.469667C0.210223 31.0596 0 31.2699 0 31.5293C0 31.7887 0.210223 31.999 0.469667 31.999H31.5303C31.7898 31.999 32 31.7887 32 31.5293C32 31.2699 31.7898 31.0596 31.5303 31.0596ZM3.94521 31.0596V20.4765H7.0137V31.0596H3.94521ZM14.4658 31.0596V18.4726H17.5342V31.0596H14.4658Z" fill="#800000"/>
</svg>
